<?xml version="1.0" encoding="utf-8"?>
<!-- Generator: Adobe Illustrator 24.1.0, SVG Export Plug-In . SVG Version: 6.00 Build 0)  -->
<svg version="1.1" id="Layer_1" xmlns="http://www.w3.org/2000/svg" xmlns:xlink="http://www.w3.org/1999/xlink" x="0px" y="0px"
	 viewBox="0 0 12.5 18.5" style="enable-background:new 0 0 12.5 18.5;" xml:space="preserve">
<path d="M2.9,1.7l0.6-1.2l0.1-0.2C3.6,0.1,3.8,0,4,0c0.2,0,0.4,0.1,0.5,0.3L5.3,2l0.8,1.6l0.1,0.2l0.1-0.3L8,0.4
	C8,0.1,8.3-0.1,8.6,0C8.8,0.1,8.9,0.2,9,0.4l0.6,1.3L11,1.4c0.2-0.1,0.4,0,0.6,0.2c0.1,0.2,0.1,0.4,0,0.6l-0.8,1.6L8.9,7.5L8.8,7.7
	h1.4c0.3,0,0.5,0.2,0.6,0.5c0,0,0,0,0,0.1c0,0.7,0,1.3,0,2c0,0.1,0,0.2,0.1,0.3l1.3,1.3c0.2,0.2,0.3,0.5,0.1,0.7l-0.1,0.1L10.9,14
	c-0.1,0.1-0.1,0.1-0.1,0.2c0,0.7,0,1.3,0,2c0,0.3-0.2,0.5-0.5,0.6h-0.1h-2c-0.1,0-0.2,0-0.3,0.1l-1.3,1.3c-0.2,0.2-0.5,0.3-0.7,0.1
	l-0.1-0.1l-1.4-1.3c-0.1-0.1-0.1-0.1-0.2-0.1h-2c-0.3,0-0.5-0.2-0.6-0.5v-0.1c0-0.6,0-1.3,0-1.9c0-0.1,0-0.2-0.1-0.3l-1.3-1.4
	C0,12.5,0,12.1,0.1,11.9l0.1-0.1l1.4-1.4c0-0.1,0.1-0.1,0.1-0.2c0-0.7,0-1.3,0-2c0-0.3,0.2-0.5,0.5-0.6c0,0,0,0,0.1,0h1.4L3.6,7.5
	L0.9,2.2c0-0.1-0.1-0.1-0.1-0.2c-0.1-0.2,0-0.5,0.3-0.6c0.1,0,0.2,0,0.3,0L2.9,1.7z M6.2,7.2L6.1,7.3C5.7,7.7,5.4,8.1,5,8.5
	C4.8,8.6,4.6,8.7,4.4,8.7H2.7c0,0.1,0,0.1,0,0.2c0,0.5,0,1,0,1.6c0,0.2-0.1,0.4-0.2,0.5l-1.1,1.2l-0.1,0.1l1.2,1.2
	c0.1,0.1,0.2,0.3,0.2,0.5c0,0.5,0,1.1,0,1.6c0,0,0,0.1,0,0.2h1.8c0.2,0,0.4,0.1,0.5,0.2l1.1,1.1l0.1,0.1L7.5,16
	c0.1-0.1,0.3-0.2,0.5-0.2h1.8c0-0.1,0-0.1,0-0.2c0-0.5,0-1.1,0-1.6c0-0.2,0.1-0.4,0.2-0.5l1.1-1.1l0.1-0.1L10,11
	c-0.1-0.1-0.2-0.3-0.2-0.5c0-0.5,0-1.1,0-1.6c0-0.1,0-0.1,0-0.2H8c-0.2,0-0.4-0.1-0.5-0.2L6.6,7.6L6.2,7.2z M8.4,1.7L6.2,5.9
	C6.4,6,6.5,6.1,6.7,6.3c0.3,0.3,0.6,0.6,1,1l0.1,0.1l2.4-4.8L9.5,2.7c-0.3,0.1-0.6,0-0.7-0.3l0,0L8.4,1.7z M4.5,7.1L4.5,7.1
	c0.4-0.8,0.7-1.4,1-2.1c0-0.1,0-0.1,0-0.2L4,1.8V1.7l0,0L3.7,2.4C3.6,2.7,3.3,2.8,3,2.7L2.2,2.6L4.5,7.1z"/>
<path d="M6.2,9.4c1.6,0,2.8,1.3,2.8,2.8S7.8,15,6.2,15s-2.8-1.3-2.8-2.8C3.4,10.7,4.7,9.4,6.2,9.4z M6.2,10.4c-1,0-1.8,0.8-1.8,1.8
	S5.2,14,6.2,14S8,13.2,8,12.2C8,11.3,7.2,10.5,6.2,10.4L6.2,10.4L6.2,10.4z"/>
</svg>
