<?xml version="1.0" encoding="utf-8"?>
<!-- Generator: Adobe Illustrator 24.1.0, SVG Export Plug-In . SVG Version: 6.00 Build 0)  -->
<svg version="1.1" id="Layer_2" xmlns="http://www.w3.org/2000/svg" xmlns:xlink="http://www.w3.org/1999/xlink" x="0px" y="0px"
	 viewBox="0 0 20 20" style="enable-background:new 0 0 20 20;" xml:space="preserve">
<path d="M8.5,9.6l0.2,0.1c0.8,0.3,1.3,1,1.4,1.9c0.1,0.7,0,1.5-0.3,2.1c-0.4,0.9-1.3,1.5-2.2,1.7c-0.5,0.1-0.9,0.1-1.4,0.1H1.3V4.6
	h5.2c0.6,0,1.2,0.1,1.8,0.3c0.8,0.3,1.4,1.1,1.6,2c0.1,0.4,0,0.9-0.1,1.3c-0.1,0.5-0.5,1-0.9,1.2L8.5,9.6z M3.8,13.6h2.3
	c0.2,0,0.5,0,0.7-0.1c0.5-0.1,0.8-0.4,1-0.8c0.1-0.3,0.1-0.5,0.1-0.8c0-0.5-0.4-1-0.9-1.1c-0.3-0.1-0.6-0.1-0.9-0.1H3.8V13.6
	L3.8,13.6z M3.8,8.9h2.5c0.3,0,0.6-0.1,0.9-0.2c0.2-0.1,0.4-0.3,0.4-0.5c0.1-0.3,0.1-0.5,0-0.8C7.5,7,7.3,6.7,6.9,6.6
	C6.6,6.5,6.2,6.5,5.8,6.5h-2V8.9L3.8,8.9z"/>
<path d="M18.7,11.8H13c0,0.1,0,0.2,0,0.3c0,0.2,0.1,0.5,0.2,0.7c0.2,0.4,0.6,0.7,1,0.8s0.8,0.2,1.2,0.1c0.4-0.1,0.8-0.4,1-0.8
	l0.1-0.1h2c0,0.1,0,0.2-0.1,0.3c-0.1,0.4-0.3,0.7-0.6,1c-0.6,0.7-1.4,1.1-2.2,1.2c-0.7,0.1-1.3,0.1-2-0.1C13,15,12.5,14.8,12,14.4
	c-0.5-0.4-0.9-1-1-1.6c-0.2-0.6-0.2-1.3-0.1-1.9c0-0.6,0.2-1.2,0.4-1.7c0.4-0.9,1.2-1.6,2.2-1.8c1.1-0.4,2-0.4,3,0
	c0.8,0.3,1.5,0.9,1.8,1.7c0.2,0.5,0.4,1,0.4,1.5C18.7,10.9,18.7,11.3,18.7,11.8C18.7,11.7,18.7,11.8,18.7,11.8z M16.6,10.4
	c0-0.1,0-0.2,0-0.2c-0.1-0.6-0.4-1.1-1-1.3c-0.3-0.1-0.7-0.1-1-0.1c-0.4,0-0.8,0.2-1,0.6c-0.2,0.2-0.3,0.4-0.3,0.7
	c0,0.1-0.1,0.2-0.1,0.4h3.5L16.6,10.4L16.6,10.4z"/>
<path d="M12.7,6.1V5H17v1.1H12.7z"/>
</svg>
