<?xml version="1.0" encoding="utf-8"?>
<!-- Generator: Adobe Illustrator 24.1.0, SVG Export Plug-In . SVG Version: 6.00 Build 0)  -->
<svg version="1.1" id="Layer_1" xmlns="http://www.w3.org/2000/svg" xmlns:xlink="http://www.w3.org/1999/xlink" x="0px" y="0px"
	 viewBox="0 0 20 20" style="enable-background:new 0 0 20 20;" xml:space="preserve">
<path d="M12.5,8.7h1.4c0.4,0,0.8,0.3,0.8,0.8l0,0c0,0.3,0,0.7,0,1l1.9-0.5l1.7-0.5c0.4-0.1,0.8,0.1,1,0.5c0,0.1,0,0.2,0,0.2
	c0,2,0,4.1,0,6.1c0,0.4-0.4,0.8-0.8,0.8c-0.1,0-0.1,0-0.2,0l-3.5-1h-0.1c0,0.3,0,0.7,0,1c0,0.4-0.3,0.8-0.7,0.8h-0.1H1.5
	c-0.4,0-0.8-0.3-0.9-0.7v-0.1c0-2.5,0-5.1,0-7.6c0-0.4,0.3-0.7,0.8-0.8h0.1h1C1.6,8,1.1,6.9,1.2,5.8C1.3,5,1.7,4.2,2.4,3.7
	c1.4-1.1,3.3-0.8,4.4,0.5c0,0.1,0.1,0.2,0.2,0.4C7.5,2.9,9.1,1.8,10.9,2c1.5,0.1,2.7,1.1,3.1,2.5c0.3,0.8,0.2,1.6-0.1,2.3
	C13.6,7.6,13.1,8.2,12.5,8.7z M2.2,16.5h10.9v-6.2H2.2V16.5L2.2,16.5z M12.6,5.6c0-1.1-0.9-2.1-2.1-2.1c-1.1,0-2.1,0.9-2.1,2.1
	c0,1.1,0.9,2.1,2.1,2.1S12.6,6.8,12.6,5.6L12.6,5.6z M17.8,11.3l-3,0.8c-0.1,0-0.1,0.1-0.1,0.2c0,0.7,0,1.4,0,2.1
	c0,0.1,0.1,0.2,0.2,0.2l0,0l1.4,0.4l1.5,0.4V11.3z M2.8,6.1c0,0.9,0.7,1.6,1.5,1.6c0.9,0,1.6-0.7,1.6-1.5c0-0.9-0.7-1.6-1.5-1.6
	C3.5,4.6,2.8,5.2,2.8,6.1z M6.1,8.7h2.6C8,8.3,7.6,7.8,7.2,7.2C7,7.8,6.6,8.3,6.1,8.7z"/>
</svg>
