<?xml version="1.0" encoding="utf-8"?>
<!-- Generator: Adobe Illustrator 24.1.0, SVG Export Plug-In . SVG Version: 6.00 Build 0)  -->
<svg version="1.1" id="Layer_2" xmlns="http://www.w3.org/2000/svg" xmlns:xlink="http://www.w3.org/1999/xlink" x="0px" y="0px"
	 viewBox="0 0 20 20" style="enable-background:new 0 0 20 20;" xml:space="preserve">
<style type="text/css">
	.st0{stroke:#000000;stroke-width:0.5;stroke-miterlimit:10;}
</style>
<path class="st0" d="M5.7,15.7c0-0.6,0-1.1,0-1.7c0-0.1,0-0.2-0.1-0.2c-1.1-0.6-2-1.4-2.6-2.4c-0.7-0.9-1-1.9-1-3
	c0-1.3,0.5-2.5,1.4-3.5s2.1-1.7,3.4-2.1s2.6-0.6,4-0.5s2.7,0.5,3.9,1.1C15.8,4,16.8,5,17.4,6.1c0.5,1,0.7,2.1,0.5,3.2
	c-0.2,1.3-0.9,2.5-1.8,3.3c-1.2,1.1-2.7,1.8-4.3,2.1c-0.7,0.1-1.3,0.2-2,0.2c0,0,0,0.1-0.1,0.1l-3.6,2.6L6,17.7
	c-0.1,0.1-0.3,0.1-0.3,0c0,0-0.1-0.1-0.1-0.2C5.7,16.8,5.7,16.3,5.7,15.7z M6.1,17l0.1-0.1c1-0.7,2-1.5,3-2.2
	c0.2-0.2,0.5-0.3,0.7-0.3c1.2,0,2.4-0.2,3.5-0.7c1.3-0.5,2.4-1.4,3.1-2.5c0.9-1.3,1.1-3,0.5-4.4c-0.4-1-1.1-1.9-2.1-2.5
	c-1.3-0.8-2.7-1.3-4.2-1.4c-1.1-0.1-2.3,0-3.4,0.2C6.2,3.3,5,4,4.1,4.9c-1.7,1.5-2.1,4-1,6c0.7,1.1,1.7,2,2.8,2.6
	c0.2,0.1,0.2,0.2,0.2,0.4c0,1,0,2,0,2.9L6.1,17L6.1,17z"/>
<path class="st0" d="M10,6.3h4c0.1,0,0.1,0,0.2,0c0.1,0,0.1,0.1,0.1,0.2s-0.1,0.2-0.2,0.2H6c-0.1,0-0.2-0.1-0.3-0.2l0,0
	c0-0.1,0.1-0.2,0.3-0.2H10z"/>
<path class="st0" d="M10,10.4h4.1c0.1,0,0.2,0.1,0.2,0.2c0,0.1-0.1,0.2-0.2,0.2H5.9c-0.1,0-0.2-0.1-0.2-0.2c0-0.1,0.1-0.2,0.2-0.2
	H10z"/>
<path class="st0" d="M10,8.8H5.9c-0.1,0-0.2-0.1-0.2-0.2c0-0.1,0.1-0.2,0.2-0.2h8.2c0.1,0,0.2,0.1,0.2,0.3c0,0.1-0.1,0.2-0.2,0.2
	L10,8.8L10,8.8z"/>
</svg>
