<?xml version="1.0" encoding="utf-8"?>
<!-- Generator: Adobe Illustrator 24.1.0, SVG Export Plug-In . SVG Version: 6.00 Build 0)  -->
<svg version="1.1" id="Layer_1" xmlns="http://www.w3.org/2000/svg" xmlns:xlink="http://www.w3.org/1999/xlink" x="0px" y="0px"
	 viewBox="0 0 20 20" style="enable-background:new 0 0 20 20;" xml:space="preserve">
<style type="text/css">
	.st0{stroke:#000000;stroke-width:0.3;stroke-miterlimit:10;}
</style>
<path class="st0" d="M11.7,4.5c0,0.4-0.2,0.7-0.5,0.9c-0.2,0.2-0.5,0.3-0.7,0.4S10.2,6,10,6.1c-0.1,0.2-0.2,0.5,0,0.7
	c0,0,0,0.1,0.1,0.1c0.2,0.1,0.3,0.2,0.5,0.3c0.3,0.1,0.5,0.3,0.7,0.5c0.4,0.3,0.5,1,0.2,1.4c-0.1,0.1-0.1,0.1-0.2,0.2
	c-0.2,0.2-0.4,0.3-0.7,0.4c-0.2,0.1-0.3,0.2-0.5,0.3c-0.3,0.2-0.3,0.5-0.2,0.7c0,0.1,0.1,0.1,0.2,0.2c0.1,0.1,0.3,0.2,0.5,0.3
	s0.4,0.2,0.6,0.4c0.5,0.3,0.6,0.9,0.3,1.4c-0.1,0.1-0.2,0.2-0.3,0.3c-0.2,0.2-0.5,0.3-0.7,0.4c-0.2,0.1-0.4,0.2-0.5,0.4
	c-0.2,0.2-0.2,0.5-0.1,0.7c0,0,0,0,0.1,0.1c0.2,0.1,0.4,0.3,0.6,0.4c0.2,0.1,0.5,0.3,0.7,0.4c0.5,0.3,0.6,0.9,0.2,1.4
	c-0.1,0.1-0.2,0.2-0.2,0.2c-0.2,0.2-0.4,0.3-0.7,0.4c-0.2,0.1-0.3,0.2-0.5,0.3c-0.1,0.1-0.2,0.3-0.2,0.4s-0.1,0.2-0.2,0.2
	c-0.1,0-0.2-0.1-0.2-0.2c0,0,0,0,0-0.1c0-0.3,0.2-0.6,0.4-0.8c0.2-0.2,0.4-0.3,0.7-0.4c0.1-0.1,0.3-0.2,0.4-0.3
	c0.2-0.2,0.3-0.5,0.2-0.7c0-0.1-0.1-0.1-0.2-0.2c-0.2-0.1-0.3-0.2-0.5-0.3c-0.3-0.1-0.5-0.3-0.7-0.5c-0.4-0.3-0.5-1-0.1-1.4
	c0-0.1,0.1-0.1,0.1-0.1c0.2-0.2,0.5-0.3,0.7-0.5c0.2-0.1,0.4-0.2,0.5-0.4c0.2-0.2,0.3-0.5,0.1-0.7L11,11.9c-0.2-0.1-0.3-0.2-0.5-0.3
	s-0.5-0.3-0.7-0.4c-0.5-0.3-0.6-0.9-0.2-1.4c0.1-0.1,0.2-0.2,0.2-0.2c0.2-0.2,0.4-0.3,0.7-0.4c0.2,0,0.3-0.1,0.5-0.2
	c0.3-0.2,0.3-0.5,0.2-0.7c0-0.1-0.1-0.1-0.2-0.2c-0.1-0.1-0.3-0.2-0.5-0.3C10.3,7.6,10,7.5,9.8,7.3C9.4,7,9.3,6.3,9.6,5.9
	c0-0.1,0.1-0.1,0.2-0.2c0.2-0.2,0.4-0.3,0.7-0.4C10.7,5.2,10.8,5.1,11,5c0.3-0.1,0.3-0.5,0.2-0.7c0-0.1-0.1-0.1-0.2-0.2
	c-0.1-0.1-0.3-0.2-0.5-0.3s-0.4-0.3-0.7-0.5C9.6,3.1,9.4,2.8,9.4,2.5c0-0.1,0.1-0.2,0.2-0.2l0,0c0.1,0,0.2,0.1,0.2,0.2l0,0
	c0,0.2,0.1,0.4,0.4,0.5c0.3,0.2,0.6,0.3,0.9,0.5c0.3,0.2,0.5,0.4,0.6,0.7C11.7,4.4,11.7,4.4,11.7,4.5z"/>
<path class="st0" d="M4.1,9.5c-0.3,0-0.7-0.1-1-0.1S2.6,9.6,2.8,9.9s0.3,0.4,0.4,0.6c0.1,0.1,0.2,0.3,0.3,0.4c0.2,0.3,0.1,0.8-0.2,1
	C3.2,12,3,12,2.8,12c-0.4,0.1-0.8,0-1.1,0c-0.2,0-0.4,0-0.6,0.2c-0.1,0-0.2,0-0.3,0c-0.1-0.1-0.1-0.2,0-0.3c0.2-0.2,0.4-0.4,0.7-0.4
	s0.7,0.1,1,0.1c0.2,0.1,0.4,0,0.5-0.1c0.1-0.2,0-0.4-0.1-0.5c-0.1-0.2-0.3-0.4-0.4-0.6c-0.1-0.1-0.2-0.3-0.3-0.5
	C2.1,9.6,2.2,9.2,2.5,9c0.1,0,0.2-0.1,0.3-0.1c0.3,0,0.7,0,1,0C4,9,4.2,9,4.3,9c0.1,0,0.3-0.1,0.3-0.2c0-0.1,0-0.1,0-0.2
	C4.5,8.4,4.4,8.2,4.2,8.1C4.1,7.8,3.9,7.6,3.8,7.4C3.6,7.1,3.7,6.6,4,6.4c0.1-0.1,0.3-0.1,0.5-0.1c0.4,0,0.8,0.1,1.1,0.1
	c0.2,0.1,0.4,0,0.5-0.1c0.1-0.2,0-0.4-0.1-0.5C5.8,5.5,5.6,5.3,5.5,5C5.4,4.9,5.3,4.7,5.2,4.6c-0.1-0.3,0-0.7,0.4-0.9
	c0.1,0,0.1,0,0.2-0.1c0.3,0,0.6,0,0.8,0c0.2,0,0.4,0,0.7,0s0.4-0.2,0.3-0.5S7.3,2.8,7.2,2.6C7,2.4,6.9,2.2,6.7,2
	c-0.1-0.2-0.1-0.4,0-0.6c0-0.1,0.2-0.2,0.3-0.1c0.1,0,0.2,0.2,0.1,0.3c0,0.2,0,0.3,0.1,0.5s0.3,0.4,0.4,0.6C7.8,2.8,7.9,3,8,3.2
	C8.2,3.5,8,4,7.7,4.1C7.6,4.2,7.5,4.2,7.3,4.2c-0.3,0-0.6,0-0.9-0.1c-0.2,0-0.4,0-0.6,0c-0.1,0-0.2,0.1-0.3,0.2c0,0.1,0,0.1,0,0.1
	C5.8,4.7,5.9,4.8,6,5c0.2,0.2,0.3,0.5,0.5,0.7c0.2,0.3,0.1,0.8-0.2,1C6.1,6.8,6,6.8,5.8,6.8c-0.3,0-0.7-0.1-1.1-0.1
	c-0.1,0-0.2,0-0.3,0c-0.1,0-0.3,0.1-0.3,0.2s0,0.1,0.1,0.2c0.1,0.2,0.2,0.3,0.3,0.5C4.6,7.8,4.8,8,4.9,8.2c0.3,0.3,0.2,0.8-0.1,1
	C4.7,9.4,4.5,9.5,4.1,9.5L4.1,9.5z"/>
<path class="st0" d="M16.8,7.5c-0.4,0-0.7,0.1-1.1,0.1c-0.1,0-0.3,0-0.4-0.1C15,7.4,14.8,7,14.9,6.7l0,0c0.1-0.3,0.3-0.5,0.4-0.8
	c0.1-0.2,0.3-0.4,0.4-0.6s0-0.5-0.3-0.5s-0.7,0.1-1.1,0.1c-0.2,0-0.4,0-0.5-0.1c-0.3-0.1-0.5-0.4-0.5-0.8V3.9
	c0.1-0.2,0.2-0.4,0.3-0.7C13.7,3,13.9,2.8,14,2.5c0.1-0.1,0.1-0.3,0.1-0.4C14,2,13.9,1.9,13.7,1.9c-0.3,0-0.6,0.1-0.9,0.1
	c-0.2,0-0.5,0-0.7-0.1c0.1,0.2,0,0.1-0.1,0c0-0.1,0-0.2,0-0.3c0.1,0,0.2,0,0.3,0c0.3,0.2,0.6,0.3,0.9,0.2c0.3,0,0.7,0,1,0
	c0.4,0,0.6,0.4,0.6,0.7c0,0.1,0,0.1,0,0.2c-0.1,0.2-0.2,0.5-0.4,0.7C14.2,3.6,14,3.8,13.9,4c-0.1,0.2-0.1,0.5,0.3,0.5s0.7-0.1,1-0.1
	c0.2,0,0.3,0,0.5,0c0.4,0.1,0.6,0.4,0.5,0.8c0,0.1,0,0.1-0.1,0.2c-0.1,0.3-0.3,0.5-0.4,0.8c-0.1,0.2-0.3,0.4-0.4,0.6s0,0.4,0.2,0.4
	s0.7-0.1,1-0.1c0.2,0,0.4,0,0.6,0c0.4,0.1,0.6,0.4,0.6,0.7c0,0.1,0,0.1,0,0.2c-0.1,0.2-0.2,0.4-0.3,0.6C17.3,8.8,17.1,9,17,9.2
	s-0.1,0.6,0.3,0.5s0.7,0,1,0c0.2,0,0.3,0,0.5,0c0.3,0.1,0.6,0.4,0.5,0.7v0.1c-0.1,0.2-0.2,0.4-0.3,0.6c-0.1,0.2-0.3,0.4-0.5,0.6
	c-0.1,0.1-0.1,0.3-0.1,0.5c0,0.1,0,0.2-0.1,0.3l0,0c-0.1,0-0.2,0-0.3-0.1c-0.1-0.2-0.1-0.4,0-0.6c0.1-0.2,0.3-0.5,0.4-0.7
	s0.2-0.3,0.4-0.5s0-0.5-0.3-0.5s-0.7,0.1-1,0.1c-0.2,0-0.4,0-0.5,0c-0.4-0.1-0.6-0.4-0.5-0.8c0-0.1,0-0.1,0-0.2
	c0.1-0.2,0.2-0.4,0.4-0.6C17,8.4,17.1,8.2,17.2,8c0.1-0.1,0.1-0.3,0.1-0.4c-0.1-0.1-0.2-0.2-0.4-0.2L16.8,7.5L16.8,7.5z"/>
<path d="M6.8,15.4c-0.1-0.1-0.2-0.2-0.3-0.3c-0.2,0-0.3,0-0.5,0c0-0.1,0.1-0.2,0.1-0.2c0.1-0.1,0.1-0.3,0-0.4c0-0.1-0.1-0.2-0.1-0.3
	c0.3,0.2,0.7,0,0.8-0.3l0,0l0,0c0,0.1,0,0.2,0,0.2c0,0.2,0.1,0.3,0.2,0.4c0.1,0,0.2,0.1,0.2,0.2C7,14.7,6.8,15,6.8,15.4L6.8,15.4
	L6.8,15.4L6.8,15.4z"/>
<path d="M7.1,8.3c0.1-0.1,0.3-0.1,0.4-0.2c0.1-0.2,0.1-0.3,0.1-0.5C7.7,7.7,7.9,7.8,8,7.9c0.2,0,0.4,0,0.5-0.1
	C8.3,8,8.3,8.4,8.5,8.6l0,0l0,0c-0.2,0-0.3,0-0.5,0C7.9,8.8,7.7,8.9,7.6,9C7.7,8.7,7.4,8.4,7.1,8.3L7.1,8.3L7.1,8.3z"/>
<path d="M4.3,15.8C4,16,4,16.3,4.2,16.6c0,0,0,0.1,0.1,0.1l0,0c-0.1,0-0.1,0-0.2,0c-0.2-0.1-0.4,0-0.5,0.1S3.5,16.9,3.4,17
	c0-0.2-0.1-0.3-0.1-0.5c-0.1-0.1-0.3-0.2-0.5-0.2c0.3-0.1,0.5-0.4,0.5-0.7c0,0,0,0,0-0.1h0.1c0.1,0.1,0.2,0.2,0.4,0.3
	C3.9,15.8,4.1,15.8,4.3,15.8z"/>
<path d="M14.1,8.2c0,0.2,0,0.4,0.1,0.5s0.3,0.2,0.4,0.3c-0.3,0.1-0.5,0.4-0.5,0.7c-0.2-0.3-0.6-0.4-0.9-0.3c0.3-0.2,0.3-0.7,0-0.9
	l0,0c0.2,0,0.4,0,0.5,0C13.8,8.4,14,8.3,14.1,8.2z"/>
<path d="M17.7,15.5c-0.3,0.2-0.4,0.5-0.3,0.8l0,0c-0.1-0.1-0.3-0.2-0.5-0.2s-0.3,0.1-0.5,0.2c0.1-0.2,0.1-0.3,0.1-0.5
	c-0.1-0.2-0.2-0.3-0.4-0.4c0.3,0.1,0.7-0.2,0.8-0.5C17.1,15.3,17.4,15.6,17.7,15.5z"/>
<path d="M5.6,11c0.1,0.2,0.2,0.3,0.4,0.2l-0.1,0.5c-0.2-0.1-0.4,0-0.5,0.1c0-0.2-0.1-0.4-0.2-0.5C5.4,11.4,5.6,11.2,5.6,11z"/>
<path d="M14.8,12.6c-0.2-0.1-0.3-0.1-0.5,0.1l-0.2-0.4l0.4-0.3c0.1,0.2,0.3,0.3,0.4,0.2C14.8,12.2,14.7,12.4,14.8,12.6z"/>
<path d="M5.2,2C5,2.1,5,2.4,5.1,2.5C5,2.4,4.8,2.4,4.7,2.5l0,0L4.4,2.1c0.2,0,0.3-0.2,0.3-0.3C4.8,2,5,2,5.2,2z"/>
<path d="M16.3,3.6c0.1-0.2-0.1-0.4-0.3-0.5c0.2,0,0.4-0.1,0.5-0.3C16.6,3,16.8,3.1,17,3c-0.2,0.1-0.2,0.3-0.1,0.5l0,0
	C16.7,3.4,16.5,3.5,16.3,3.6z"/>
</svg>
