<?xml version="1.0" encoding="utf-8"?>
<!-- Generator: Adobe Illustrator 24.1.0, SVG Export Plug-In . SVG Version: 6.00 Build 0)  -->
<svg version="1.1" id="Layer_2" xmlns="http://www.w3.org/2000/svg" xmlns:xlink="http://www.w3.org/1999/xlink" x="0px" y="0px"
	 viewBox="0 0 20 20" style="enable-background:new 0 0 20 20;" xml:space="preserve">
<style type="text/css">
	.st0{fill:#FFFFFF;}
</style>
<path d="M1.6,13.1V6.9c0-0.4,0.1-0.8,0.1-1.2c0.2-2,1.7-3.7,3.7-4c0.5-0.1,1-0.1,1.5-0.2H13l1.1,0.1c2.2,0.2,4,2,4.1,4.2
	c0,0.6,0.1,1.1,0.1,1.7v4.8c0,0.6-0.1,1.1-0.1,1.7c-0.1,2.3-2,4.1-4.3,4.2l-1.7,0.1H7.6l-1.7-0.1c-2.1-0.1-3.8-1.7-4.1-3.8
	C1.7,14,1.7,13.6,1.6,13.1z M16.9,10L16.9,10c0-0.5,0-1.1,0-1.6c0-0.8,0-1.7-0.1-2.6c-0.1-1.1-0.8-2-1.8-2.3
	c-0.5-0.2-1.1-0.3-1.7-0.3c-1.5,0-3-0.1-4.4,0c-0.9,0-1.8,0-2.7,0.1c-1.4,0-2.6,1.1-2.7,2.5C3.2,6.6,3.1,7.4,3.1,8.3
	c0,1.9,0,3.7,0.1,5.6c0,1.6,1.3,2.9,2.8,2.9c0.1,0,0.1,0,0.2,0c2.5,0.1,5,0,7.6,0c0.9,0,1.8-0.4,2.4-1.2c0.4-0.5,0.6-1.2,0.6-1.9
	C16.8,12.5,16.8,11.2,16.9,10z"/>
<path d="M5.7,10c0-2.4,1.9-4.3,4.3-4.3s4.3,1.9,4.3,4.3s-1.9,4.3-4.3,4.3S5.7,12.4,5.7,10L5.7,10z M12.8,9.9
	c-0.1-1.5-1.3-2.7-2.9-2.7s-2.7,1.3-2.7,2.9c0.1,1.5,1.3,2.7,2.9,2.7C11.6,12.8,12.8,11.5,12.8,9.9L12.8,9.9L12.8,9.9z"/>
<ellipse class="st0" cx="14.4" cy="5.5" rx="1" ry="1"/>
</svg>
