<?xml version="1.0" encoding="utf-8"?>
<!-- Generator: Adobe Illustrator 24.1.0, SVG Export Plug-In . SVG Version: 6.00 Build 0)  -->
<svg version="1.1" id="Layer_2" xmlns="http://www.w3.org/2000/svg" xmlns:xlink="http://www.w3.org/1999/xlink" x="0px" y="0px"
	 viewBox="0 0 20 20" style="enable-background:new 0 0 20 20;" xml:space="preserve">
<style type="text/css">
	.st0{fill:#FFFFFF;}
</style>
<path d="M0.6,7.4c0-0.8,0-1.5,0-2.3c0-0.1,0-0.2,0-0.2c0.2-0.8,0.8-1.4,1.5-1.5l0.3-0.1h15.1h0.2C18.4,3.5,19,4,19.2,4.6
	c0,0.1,0,0.2,0.1,0.2v10c0,0.2-0.1,0.4-0.1,0.5c-0.2,0.6-0.7,1-1.3,1.2l-0.3,0.1H2.7c-0.1,0-0.3,0-0.5,0c-0.7-0.2-1.3-0.7-1.5-1.5
	c0-0.1-0.1-0.2-0.1-0.3V10V9.9c0-0.2,0-0.5,0-0.8C0.6,8.6,0.6,8,0.6,7.4C0.7,7.5,0.6,7.5,0.6,7.4z M2.7,4.4L2.7,4.4L2.7,4.4l2.7,2.7
	l4.4,4.4c0,0.1,0.1,0.1,0.2,0.1c0.1,0,0.3,0,0.4-0.1l1-1l6-6l0,0H2.6L2.7,4.4z M3.7,15.7h12.7L12,11.3v0.1L10.4,13
	c-0.1,0.2-0.3,0.2-0.5,0.1c0,0-0.1,0-0.1-0.1l-1.4-1.4l-0.3-0.3L3.7,15.7z M12.7,10.6L12.7,10.6l3.9,3.9l1,1h0.1
	c0.2-0.1,0.4-0.2,0.5-0.4s0.2-0.4,0.1-0.7c0-3.2,0-6.4,0-9.6c0-4.8,0,0,0,0L12.7,10.6z M7.4,10.6L1.8,5l0,0c0,3.2,0,6.4,0,9.6
	c0,0.1,0,0.3,0,0.4c0,0.2,0.2,0.4,0.4,0.5h0.1l4-4L7.4,10.6z"/>
<path class="st0" d="M0.6,7.4c0,0.1,0,0.1,0,0.2c0,0.5,0,1.1,0,1.6c0,0.2,0,0.5,0,0.8v0.1C0.6,9.2,0.6,8.3,0.6,7.4z"/>
</svg>
