<?xml version="1.0" encoding="utf-8"?>
<!-- Generator: Adobe Illustrator 24.1.0, SVG Export Plug-In . SVG Version: 6.00 Build 0)  -->
<svg version="1.1" id="Layer_1" xmlns="http://www.w3.org/2000/svg" xmlns:xlink="http://www.w3.org/1999/xlink" x="0px" y="0px"
	 viewBox="0 0 20 20" style="enable-background:new 0 0 20 20;" xml:space="preserve">
<path d="M12,0.7l0.2,0.1c0.7,0.2,1.1,0.8,1.2,1.5c0,0.2,0,0.5,0,0.7c0.2,0,0.5,0,0.7,0c0.8,0.1,1.4,0.8,1.4,1.6c0,0.2,0,0.4,0,0.7
	c0.9-0.3,1.8,0.1,2.1,1c0.1,0.2,0.1,0.4,0.1,0.6c0,2.2,0,4.4,0,6.6c0,1.4-0.3,2.8-0.7,4.1c-0.1,0.5-0.3,0.9-0.4,1.4
	c-0.1,0.3-0.3,0.5-0.6,0.4H8c-0.2,0-0.4-0.1-0.5-0.2l-5.1-6.5c-0.2-0.2-0.2-0.5,0-0.7c0.1-0.2,0.3-0.4,0.4-0.6
	C3.6,10.5,5,10.3,6,11.1C6,11,6,11,6,11c0.5,0.4,0.9,0.9,1.4,1.3l0.3,0.2c0-0.1,0-0.1,0-0.2c0-3,0-5.9,0-8.9C7.7,2.6,8.2,2,9,1.8
	c0.3-0.1,0.7-0.1,1,0.1c0.2-0.6,0.7-1.1,1.3-1.2l0,0L12,0.7L12,0.7z M3.4,12.1L3.4,12.1l4.7,6c0.1,0.1,0.1,0.1,0.2,0.1h7.3
	c0.1,0,0.2,0,0.2-0.1l0,0c0.1-0.5,0.3-1.1,0.4-1.6c0.3-1,0.4-2,0.5-2.9c0-2.2,0-4.5,0-6.8c0-0.3-0.2-0.5-0.5-0.5s-0.5,0.2-0.5,0.5
	c0,0.2,0,0.4,0,0.6c0,1,0,2,0,3c0,0.3-0.2,0.5-0.4,0.5c-0.3,0.1-0.5-0.1-0.6-0.4c0-0.1,0-0.2,0-0.3c0-1.9,0-3.8,0-5.6
	c0-0.1,0-0.1,0-0.2c-0.1-0.3-0.3-0.5-0.6-0.4H14c-0.3,0.1-0.4,0.3-0.4,0.6c0,1.6,0,3.1,0,4.7c0,0.1,0,0.2,0,0.2
	c0,0.2-0.1,0.3-0.3,0.4c-0.3,0.1-0.6,0-0.7-0.2c0-0.1-0.1-0.2-0.1-0.3c0-1.2,0-2.4,0-3.6s0-2.3,0-3.5c0-0.2-0.1-0.4-0.3-0.5
	c-0.3-0.1-0.6-0.1-0.8,0C11,2,10.9,2.2,11,2.5c0,2.1,0,4.3,0,6.4c0,0.3-0.2,0.6-0.6,0.6S9.9,9.2,9.9,8.9c0-0.1,0-0.1,0-0.2
	c0-1.7,0-3.4,0-5.2c0-0.1,0-0.1,0-0.2c0-0.3-0.2-0.5-0.5-0.5C9.1,2.8,8.8,3,8.8,3.3c0,0.1,0,0.2,0,0.3c0,3.3,0,6.7,0,10.1
	c0,0.1,0,0.2,0,0.2c0,0.2-0.1,0.4-0.3,0.4c-0.2,0.1-0.4,0.1-0.6-0.1L7.7,14l-2.4-2.2c-0.4-0.5-1.2-0.5-1.7-0.1
	C3.6,11.9,3.5,12,3.4,12.1z"/>
</svg>
