<?xml version="1.0" encoding="utf-8"?>
<!-- Generator: Adobe Illustrator 24.1.0, SVG Export Plug-In . SVG Version: 6.00 Build 0)  -->
<svg version="1.1" id="Layer_2" xmlns="http://www.w3.org/2000/svg" xmlns:xlink="http://www.w3.org/1999/xlink" x="0px" y="0px"
	 viewBox="0 0 20 20" style="enable-background:new 0 0 20 20;" xml:space="preserve">
<path d="M6.8,2.7l0.6-1.1l0.1-0.2c0.1-0.2,0.3-0.3,0.4-0.3c0.2,0,0.4,0.1,0.5,0.3L9.1,3l0.8,1.6L10,4.7l0.1-0.3l1.5-3
	C11.7,1.2,12,1,12.3,1c0.2,0,0.4,0.2,0.4,0.4l0.6,1.2l1.4-0.2c0.2-0.1,0.4,0,0.5,0.2s0.1,0.4,0,0.6l-0.8,1.6l-1.8,3.6l-0.1,0.1h1.4
	c0.3,0,0.5,0.2,0.5,0.5l0,0c0,0.6,0,1.3,0,1.9c0,0.1,0,0.2,0.1,0.2l1.3,1.3c0.2,0.2,0.3,0.5,0.1,0.7l-0.1,0.1l-1.3,1.3
	c-0.1,0.1-0.1,0.1-0.1,0.2c0,0.6,0,1.3,0,1.9c0,0.3-0.2,0.5-0.5,0.6h-0.1H12c-0.1,0-0.2,0-0.3,0.1l-1.3,1.3
	c-0.2,0.2-0.5,0.2-0.7,0.1c0,0-0.1,0-0.1-0.1l-1.4-1.3c-0.1-0.1-0.1-0.1-0.2-0.1H6.2c-0.3,0-0.5-0.2-0.6-0.4v-0.1c0-0.6,0-1.2,0-1.9
	c0-0.1,0-0.2-0.1-0.3l-1.3-1.3C4,13,3.9,12.7,4.1,12.5l0.1-0.1l1.3-1.3c0,0,0.1-0.1,0.1-0.2c0-0.6,0-1.3,0-1.9
	C5.5,8.8,5.7,8.6,6,8.5c0.1,0,0.1,0,0.2,0h1.3L7.4,8.4L4.8,3.2c0-0.1-0.1-0.1-0.1-0.2c0-0.2,0.1-0.5,0.3-0.6c0.1,0,0.2,0,0.3,0
	L6.8,2.7z M10,8.1L9.9,8.2C9.5,8.6,9.2,8.9,8.8,9.3C8.7,9.4,8.5,9.5,8.3,9.5H6.6c0,0.1,0,0.1,0,0.2c0,0.5,0,1,0,1.5
	c0,0.2-0.1,0.4-0.2,0.5l-1.1,1.1l-0.1,0.1l1.2,1.2c0.1,0.1,0.2,0.3,0.2,0.5c0,0.5,0,1,0,1.5c0,0,0,0.1,0,0.2h1.7
	c0.2,0,0.4,0.1,0.5,0.2l1.1,1.1l0.1,0.1l1.2-1.2c0.1-0.1,0.3-0.2,0.5-0.2h1.7c0-0.1,0-0.1,0-0.2c0-0.5,0-1,0-1.5
	c0-0.2,0.1-0.4,0.2-0.5l1.1-1.1l0.1-0.1l-1.2-1.2c-0.1-0.1-0.2-0.3-0.2-0.5c0-0.5,0-1,0-1.6c0-0.1,0-0.1,0-0.2h-1.7
	c-0.2,0-0.4-0.1-0.5-0.2l-0.9-0.9L10,8.1z M12.1,2.7L10,6.8c0.2,0.1,0.3,0.2,0.4,0.3C10.7,7.4,11,7.7,11.3,8l0.1,0.1l2.3-4.6L13,3.6
	c-0.3,0.1-0.6,0-0.7-0.3l0,0L12.1,2.7z M8.3,8L8.3,8c0.3-0.7,0.7-1.4,1-2.1c0-0.1,0-0.1,0-0.2L7.9,2.8V2.7l0,0L7.5,3.4
	c0,0.3-0.3,0.4-0.6,0.3L6.1,3.6L8.3,8z"/>
<path d="M10,10.2c1.5,0,2.7,1.2,2.7,2.7s-1.2,2.7-2.7,2.7s-2.7-1.2-2.7-2.7l0,0C7.3,11.4,8.5,10.2,10,10.2z M10,11.2
	c-0.9,0-1.7,0.8-1.7,1.7s0.8,1.7,1.7,1.7s1.7-0.8,1.7-1.7l0,0C11.7,12,11,11.2,10,11.2L10,11.2z"/>
</svg>
