<?xml version="1.0" encoding="utf-8"?>
<!-- Generator: Adobe Illustrator 24.1.0, SVG Export Plug-In . SVG Version: 6.00 Build 0)  -->
<svg version="1.1" id="Layer_2" xmlns="http://www.w3.org/2000/svg" xmlns:xlink="http://www.w3.org/1999/xlink" x="0px" y="0px"
	 viewBox="0 0 20 20" style="enable-background:new 0 0 20 20;" xml:space="preserve">
<style type="text/css">
	.st0{stroke:#000000;stroke-width:0.5;stroke-linecap:round;stroke-linejoin:round;}
</style>
<path class="st0" d="M11.3,18.1H8.7c-0.1-0.7-0.2-1.3-0.2-2c0-0.3-0.2-0.5-0.4-0.6c-0.3-0.2-0.6-0.3-1-0.3c-0.3,0.1-0.6,0.3-0.9,0.6
	l-1,0.8l-1.8-1.8c0.4-0.5,0.8-1.1,1.3-1.6c0.1-0.1,0.1-0.3,0.1-0.5c-0.1-0.3-0.2-0.6-0.4-0.9c0-0.1-0.1-0.1-0.2-0.2L2,11.3H1.9V8.7
	c0.7-0.1,1.3-0.2,2-0.2c0.3,0,0.5-0.2,0.5-0.5c0.1-0.3,0.2-0.5,0.3-0.8c0.1-0.1,0.1-0.3-0.1-0.4C4.2,6.3,3.8,5.7,3.3,5.1l1.8-1.8
	c0.5,0.4,1,0.7,1.4,1.1c0.2,0.3,0.7,0.4,1,0.1C7.7,4.4,7.8,4.3,8,4.3C8.2,4.2,8.4,4,8.4,3.8c0.1-0.7,0.2-1.3,0.2-2h2.6
	c0.1,0.5,0.1,1,0.2,1.6c-0.1,0.5,0.3,1,0.8,1.1c0.4,0.2,0.9,0.2,1.2-0.2c0.4-0.4,0.9-0.7,1.3-1l1.8,1.8l-0.8,1
	c-0.2,0.2-0.4,0.5-0.6,0.7c0,0.1,0,0.2,0,0.3c0.1,0.3,0.3,0.7,0.4,1c0,0.1,0.1,0.2,0.2,0.2c0.7,0.1,1.5,0.2,2.2,0.3v2.6l-1.6,0.2
	c-0.1,0-0.2,0-0.2,0c-0.4-0.1-0.8,0.2-0.8,0.6l0,0c-0.1,0.2-0.2,0.5-0.3,0.8c0.1,0.3,0.3,0.5,0.5,0.7l0.9,1.2l-1.8,1.8l-0.3-0.2
	c-0.5-0.4-1-0.8-1.4-1.1c-0.1,0-0.2,0-0.3,0c-0.3,0.1-0.6,0.3-1,0.4c-0.1,0-0.2,0.1-0.2,0.3C11.5,16.7,11.4,17.4,11.3,18.1z
	 M15.9,5.2l-1.1-1.1c-0.5,0.4-1.1,0.8-1.6,1.2c-0.1,0.1-0.3,0.1-0.4,0l-1.2-0.5C11.2,4.8,11,4.4,11,4c-0.1-0.5-0.1-1-0.2-1.5H9.2
	c0,0.6-0.1,1.2-0.2,1.9c0,0.2-0.1,0.4-0.3,0.4C8.2,5,7.7,5.2,7.2,5.4C7,5.5,6.9,5.5,6.8,5.4C6.3,5,5.8,4.6,5.3,4.2l-1.1,1l1.2,1.6
	c0.1,0.1,0.1,0.2,0,0.3C5.2,7.5,5.1,7.9,5,8.3C4.9,8.8,4.5,9.1,4,9.1S3,9.2,2.5,9.3v1.5C3.1,10.9,3.8,11,4.4,11
	c0.2,0,0.4,0.1,0.4,0.3c0.1,0.3,0.3,0.7,0.4,1c0.1,0.2,0.2,0.5,0.3,0.7c-0.1,0.2-0.3,0.5-0.4,0.6l-0.9,1.1l1.1,1.1
	c0.5-0.4,1.1-0.8,1.6-1.2c0.1-0.1,0.3-0.1,0.4,0l1.2,0.5c0.4,0,0.8,0.4,0.7,0.9v0.1c0.1,0.5,0.1,1,0.2,1.5h1.5
	c0.1-0.6,0.2-1.3,0.2-1.9c0-0.2,0.1-0.4,0.3-0.4c0.5-0.2,1-0.4,1.5-0.6c0.1-0.1,0.3,0,0.4,0.1c0.5,0.4,1,0.8,1.5,1.2l1.1-1.1
	l-1.2-1.6c-0.1-0.1-0.1-0.2,0-0.3c0.2-0.4,0.3-0.8,0.5-1.2c0-0.4,0.4-0.8,0.8-0.7c0.1,0,0.1,0,0.2,0c0.5-0.1,1-0.1,1.5-0.2V9.2
	c-0.8-0.1-1.4-0.2-2-0.2c-0.2,0-0.3-0.1-0.4-0.3c-0.2-0.5-0.4-1-0.6-1.5c-0.1-0.1,0-0.3,0.1-0.4C15,6.3,15.4,5.7,15.9,5.2z"/>
<path class="st0" d="M10,7c1.7,0,3,1.3,3,3s-1.3,3-3,3s-3-1.3-3-3S8.3,7,10,7z M10,7.6c-1.3,0-2.4,1.1-2.4,2.4s1.1,2.4,2.4,2.4
	s2.3-1,2.4-2.3C12.4,8.7,11.3,7.6,10,7.6L10,7.6L10,7.6z"/>
</svg>
