<?xml version="1.0" encoding="utf-8"?>
<!-- Generator: Adobe Illustrator 24.1.0, SVG Export Plug-In . SVG Version: 6.00 Build 0)  -->
<svg version="1.1" id="Layer_1" xmlns="http://www.w3.org/2000/svg" xmlns:xlink="http://www.w3.org/1999/xlink" x="0px" y="0px"
	 viewBox="0 0 20 20" style="enable-background:new 0 0 20 20;" xml:space="preserve">
<path d="M5,8.1c0.7,0.2,1.3,0.2,2,0L6.8,7.3C6.7,6.5,6.6,5.6,6.6,4.8C6.5,4.2,6.4,3.5,6.4,2.9c-0.1-0.6,0-1.1,0.4-1.5
	c0-0.2,0.2-0.2,0.3-0.2l2.2,0.2l1.9,0.2h0.1v4.6l0.8-0.1c0.2,0,0.5-0.1,0.8-0.1c0.1,0,0.2,0,0.2,0.1c0.3,0.3,0.5,0.8,0.4,1.3
	c0,0.8-0.1,1.5-0.2,2.3s-0.2,1.5-0.2,2.2c0,0.4-0.1,0.7-0.1,1c0.7,0.2,1.3,0.2,2,0l-0.1-1.1c-0.1-0.7-0.2-1.5-0.2-2.2
	s-0.1-1.3-0.2-2c-0.1-0.5,0.1-1,0.4-1.4C15,6.1,15.1,6,15.2,6.1l2.2,0.2l1.9,0.2c0.1,0,0.1,0.1,0.2,0.1l0,0c0,1.9,0,3.8,0,5.7
	c0,2-0.9,3.8-2.5,5c-0.8,0.6-1.8,1.1-2.9,1.4c-0.1,0-0.1,0-0.2,0c-1.5-0.3-2.9-1.2-3.9-2.3c-0.7-0.9-1.2-2-1.4-3.1
	c0-0.2-0.1-0.4-0.1-0.6l-0.1,0.1c-0.8,0.5-1.6,0.9-2.6,1.2H5.7c-1.5-0.3-2.9-1.2-3.9-2.4c-0.8-1-1.2-2.1-1.3-3.4
	c0-0.4-0.1-0.9-0.1-1.3c0-1.6,0-3.3,0-4.9V1.7l1-0.1l2.5-0.3l0.7-0.1c0.1,0,0.2,0,0.2,0.1C5.4,1.6,5.5,2,5.5,2.5S5.4,3.6,5.4,4.1
	C5.3,4.8,5.2,5.6,5.2,6.3C5.1,6.9,5,7.4,5,7.9C5,8,5,8,5,8.1z M2.2,9.4c0.3,0.4,0.6,0.8,1,1.1c1.5,1.2,3.7,1.3,5.3,0.1
	c0.1,0,0.1-0.1,0.1-0.1c0-0.3,0-0.6,0-1c-1.9,1.3-4.4,1.1-6-0.5L2.2,9.4z M14.5,13.9c-1.3-0.1-2.5,0.3-3.5,1.2
	c-0.1,0.1-0.1,0.1-0.2,0.2c-0.1,0.2-0.1,0.4,0.1,0.5c0,0,0.1,0.1,0.2,0.1c0.2,0,0.3,0,0.5-0.1c1.1-0.7,2.4-0.9,3.7-0.6
	c0.5,0.1,0.9,0.3,1.4,0.6c0.2,0.1,0.5,0.1,0.6-0.1c0.1-0.2,0.1-0.4-0.1-0.6l0,0C16.4,14.4,15.5,14,14.5,13.9z M8.7,4.3H8.5
	c-0.4,0-0.8,0.3-1,0.6C7.4,5,7.4,5.1,7.5,5.2c0,0,0.1,0.1,0.2,0.1c0.2,0,0.4,0.1,0.6,0.1c0.4,0,0.8,0.1,1.1,0.4c0,0,0.1,0.1,0.2,0.2
	c0.4,0.2,0.6,0.1,0.6-0.3V5.6C10.2,4.8,9.5,4.2,8.7,4.3z M17,11h0.2c0.4,0,0.7-0.2,0.9-0.5c0.2-0.3,0.1-0.4-0.2-0.5
	c-0.2,0-0.4-0.1-0.5-0.1c-0.4,0-0.8-0.1-1.1-0.4l-0.2-0.2c-0.1-0.1-0.3-0.2-0.5-0.1c-0.1,0.1-0.2,0.3-0.2,0.5l0,0
	C15.6,10.5,16.2,11.1,17,11z M1.6,5.6C1.6,5.6,1.6,5.7,1.6,5.6C1.6,6,1.8,6.1,2.1,6c0.1-0.1,0.3-0.2,0.4-0.3C2.7,5.5,3,5.4,3.3,5.4
	c0.2,0,0.4,0,0.6-0.1c0.2,0,0.4-0.1,0.4-0.2c0-0.2-0.1-0.4-0.2-0.5C4,4.4,3.6,4.3,3.3,4.3C2.5,4.2,1.8,4.7,1.7,5.5
	C1.6,5.5,1.6,5.6,1.6,5.6z M10.4,10.8c0.6,0.3,1.4,0.1,1.8-0.4c0.2-0.3,0.3-0.6,0.3-1c0-0.2-0.1-0.3-0.3-0.3c-0.1,0-0.1,0-0.2,0.1
	c-0.1,0-0.2,0.1-0.2,0.1c-0.3,0.2-0.6,0.4-0.9,0.5c0,0-0.1,0-0.1,0.1L10.4,10.8z"/>
</svg>
