<?xml version="1.0" encoding="utf-8"?>
<!-- Generator: Adobe Illustrator 24.1.0, SVG Export Plug-In . SVG Version: 6.00 Build 0)  -->
<svg version="1.1" id="Layer_1" xmlns="http://www.w3.org/2000/svg" xmlns:xlink="http://www.w3.org/1999/xlink" x="0px" y="0px"
	 viewBox="0 0 20 20" style="enable-background:new 0 0 20 20;" xml:space="preserve">
<path d="M10,0.8c5.1,0,9.2,4.1,9.1,9.2S15,19.2,10,19.2c-5.1,0-9.2-4.1-9.1-9.2V9.9C0.9,4.8,5,0.8,10,0.8z M10.1,6.6
	C11.9,7,13.4,8,14.6,9.4s1.9,3.1,2.2,4.8c0.4-0.6,0.7-1.3,0.9-2c0.1-0.3,0.1-0.6,0-0.8c-0.5-1.4-1.2-2.7-2.2-3.7
	c-1.3-1.3-3-2.2-4.8-2.6c-0.1,0-0.2,0-0.2,0.1C10.3,5.6,10.2,6.1,10.1,6.6z M10.1,7.8c0,0.2,0,0.5,0.1,0.7s0.1,0.7,0.2,1
	c0,0.2,0.2,0.3,0.3,0.4c2.1,1.3,3.3,3.8,2.9,6.3c-0.1,0.3-0.1,0.7-0.2,1c0.6-0.3,1.2-0.7,1.7-1.1c0.5-0.2,0.8-0.8,0.6-1.3l0,0
	c-0.2-1.5-0.7-3-1.7-4.2C13,9.2,11.7,8.3,10.1,7.8L10.1,7.8z M10.8,2l-2,0.1c-0.2,0-0.3,0.1-0.4,0.3c-1,1.9-1.5,4-1.3,6.2
	c0.1,0.8,0.2,1.5,0.5,2.2L9,10.2c0.1,0,0.2-0.2,0.2-0.3c0,0,0,0,0-0.1c-0.6-2-0.4-4.1,0.5-5.9C10,3.2,10.4,2.7,10.8,2z M11.4,12
	l-1.1-1c-0.1-0.1-0.3-0.1-0.4,0c-2.3,1.4-5.1,1.6-7.5,0.5l-0.2-0.1c0,0.1,0,0.1,0,0.2c0.2,0.6,0.4,1.1,0.6,1.6
	c0.1,0.1,0.2,0.2,0.3,0.2c1.6,0.4,3.3,0.5,4.9,0.1C9.2,13.3,10.4,12.8,11.4,12z M7,2.6L6.8,2.7C6,3,5.3,3.5,4.7,4
	C4.6,4.1,4.5,4.3,4.5,4.4C4.3,5,4.2,5.6,4.2,6.2c-0.2,1.5,0,3.1,0.3,4.5c0,0.1,0.1,0.2,0.2,0.2c0.6,0.1,1.2,0.1,1.7,0
	C5.6,8.2,5.8,5.2,7,2.6z M3.8,14.9C3.8,15,3.8,15,3.8,14.9c0.5,0.7,1.2,1.3,1.9,1.8c0.1,0,0.2,0,0.3,0c0.7-0.1,1.3-0.1,1.9-0.2
	c1.5-0.3,3-0.8,4.4-1.7c0.1,0,0.1-0.1,0.1-0.2c0-0.5-0.2-1.1-0.4-1.5C9.6,14.8,6.6,15.4,3.8,14.9z M11,3.9c2.9,0.6,5.4,2.4,6.9,5
	c-0.1-0.8-0.3-1.7-0.7-2.4c-1-2-2.7-3.5-4.8-4.1c-0.1,0-0.2,0-0.2,0C11.7,2.8,11.3,3.4,11,3.9z M12.4,16.2c-1.3,0.7-2.7,1.2-4.2,1.5
	c1.1,0.3,2.3,0.3,3.5,0.1c0.1,0,0.1,0,0.1-0.1C12.1,17.3,12.3,16.8,12.4,16.2L12.4,16.2z M3,6.3C2.3,7.4,2,8.7,2,10
	c0,0.1,0,0.1,0.1,0.1l1.2,0.5C2.9,9.2,2.8,7.8,3,6.3z"/>
</svg>
