<svg id="Layer_1" data-name="Layer 1" xmlns="http://www.w3.org/2000/svg" viewBox="0 0 12.46 18.47"><defs><style>.cls-1{fill:#fff;}</style></defs><title>award</title><path class="cls-1" d="M6.65,2.43L7.23,1.25l0.08-.17A0.52,0.52,0,0,1,7.77.77a0.51,0.51,0,0,1,.48.32L9.1,2.76l0.81,1.6L10,4.53l0.14-.28,1.58-3.12a0.53,0.53,0,0,1,1,0l0.63,1.3,1.43-.26a0.51,0.51,0,0,1,.56.16,0.55,0.55,0,0,1,0,.62L14.54,4.59l-1.87,3.7-0.07.16H14a0.52,0.52,0,0,1,.55.55c0,0.66,0,1.31,0,2a0.32,0.32,0,0,0,.1.26L16,12.59a0.52,0.52,0,0,1,0,.82L14.65,14.8a0.34,0.34,0,0,0-.09.21c0,0.66,0,1.31,0,2a0.52,0.52,0,0,1-.57.58H12a0.34,0.34,0,0,0-.27.11L10.4,19a0.51,0.51,0,0,1-.81,0L8.21,17.66A0.36,0.36,0,0,0,8,17.56H6A0.52,0.52,0,0,1,5.44,17c0-.64,0-1.28,0-1.92a0.36,0.36,0,0,0-.11-0.28L4,13.41a0.52,0.52,0,0,1,0-.82l1.38-1.38A0.34,0.34,0,0,0,5.44,11c0-.66,0-1.31,0-2A0.53,0.53,0,0,1,6,8.45H7.41L7.35,8.31,4.64,3a1,1,0,0,1-.07-0.19,0.46,0.46,0,0,1,.57-0.61ZM10,8l-0.13.12c-0.37.37-.74,0.73-1.11,1.11a0.72,0.72,0,0,1-.56.23H6.47c0,0.07,0,.13,0,0.19,0,0.53,0,1.05,0,1.58a0.64,0.64,0,0,1-.2.5L5.14,12.88,5,13l1.25,1.24a0.64,0.64,0,0,1,.21.5c0,0.53,0,1.06,0,1.6,0,0.05,0,.11,0,0.18H8.26a0.64,0.64,0,0,1,.5.21l1.13,1.13L10,18l1.24-1.26a0.63,0.63,0,0,1,.48-0.2h1.79c0-.08,0-0.13,0-0.19,0-.53,0-1.06,0-1.6a0.64,0.64,0,0,1,.21-0.5l1.13-1.13L15,13l-1.25-1.25a0.63,0.63,0,0,1-.2-0.48c0-.54,0-1.07,0-1.61,0-.05,0-0.11,0-0.18H11.76a0.65,0.65,0,0,1-.51-0.21l-0.89-.89Zm2.2-5.57L10,6.71c0.17,0.13.33,0.23,0.46,0.37,0.33,0.31.64,0.64,1,1l0.11,0.1L14,3.36l-0.75.14a0.53,0.53,0,0,1-.69-0.34ZM8.28,7.89l0-.06c0.35-.69.7-1.38,1-2.07a0.25,0.25,0,0,0,0-.2l-1.5-3L7.79,2.47l0,0-0.34.68a0.54,0.54,0,0,1-.67.33L6,3.36Z" transform="translate(-3.77 -0.77)"/><path class="cls-1" d="M10,10.19A2.81,2.81,0,1,1,7.19,13,2.83,2.83,0,0,1,10,10.19Zm0,1A1.78,1.78,0,1,0,11.78,13,1.77,1.77,0,0,0,10,11.22Z" transform="translate(-3.77 -0.77)"/></svg>