<svg id="Layer_2" data-name="Layer 2" xmlns="http://www.w3.org/2000/svg" viewBox="0 0 20 20"><defs><style>.cls-1{fill:#fff;}</style></defs><title>icon</title><path class="cls-1" d="M8.51,9.6L8.67,9.67a2.35,2.35,0,0,1,1.44,1.85,3.27,3.27,0,0,1-.29,2.13A3,3,0,0,1,7.6,15.32a7.7,7.7,0,0,1-1.4.13H1.26V4.56H6.49a4.39,4.39,0,0,1,1.75.32,2.47,2.47,0,0,1,1.55,2,3.17,3.17,0,0,1-.06,1.29,2,2,0,0,1-.93,1.25ZM3.77,13.55H6.1a4,4,0,0,0,.69-0.07,1.21,1.21,0,0,0,1-.79,1.92,1.92,0,0,0,.11-0.83A1.15,1.15,0,0,0,7,10.76a3.11,3.11,0,0,0-.88-0.11H3.77v2.89Zm0-4.7H6.3a1.89,1.89,0,0,0,.86-0.23,0.86,0.86,0,0,0,.42-0.52,1.57,1.57,0,0,0,0-.8,0.88,0.88,0,0,0-.67-0.7,4.16,4.16,0,0,0-1.07-.13H3.77v2.4Z"/><path class="cls-1" d="M18.74,11.78H13.07c0,0.11,0,.22,0,0.32a2.15,2.15,0,0,0,.2.68,1.6,1.6,0,0,0,1,.82,2.31,2.31,0,0,0,1.2.07,1.48,1.48,0,0,0,1-.77,0.12,0.12,0,0,1,.12-0.07h2c0,0.11,0,.22-0.08.32a2.75,2.75,0,0,1-.58,1,3.5,3.5,0,0,1-2.24,1.2,4.82,4.82,0,0,1-2-.11,4.18,4.18,0,0,1-1.55-.83,3,3,0,0,1-1-1.62A6,6,0,0,1,11,10.84a4.56,4.56,0,0,1,.41-1.73,3.37,3.37,0,0,1,2.21-1.85,4.57,4.57,0,0,1,2.83.11,3.24,3.24,0,0,1,1.84,1.69,3.82,3.82,0,0,1,.4,1.51c0,0.37,0,.75,0,1.13C18.74,11.72,18.74,11.75,18.74,11.78Zm-2.12-1.35c0-.09,0-0.16,0-0.24a1.55,1.55,0,0,0-1-1.29,2.06,2.06,0,0,0-1-.09,1.46,1.46,0,0,0-1,.56,2,2,0,0,0-.34.7c0,0.12-.05.23-0.08,0.36h3.52Z"/><path class="cls-1" d="M12.67,6.1V5H17V6.1H12.67Z"/></svg>