<svg id="Layer_1" data-name="Layer 1" xmlns="http://www.w3.org/2000/svg" viewBox="0 0 20 20"><defs><style>.cls-1{fill:#fff;}</style></defs><title>A</title><path class="cls-1" d="M12.47,8.7h1.38a0.79,0.79,0,0,1,.81.8c0,0.33,0,.66,0,1L16.58,10l1.74-.47a0.78,0.78,0,0,1,1,.77q0,3.07,0,6.15a0.8,0.8,0,0,1-1,.78l-3.5-1-0.14,0c0,0.34,0,.66,0,1a0.79,0.79,0,0,1-.84.83H1.53a0.79,0.79,0,0,1-.85-0.85q0-3.82,0-7.63A0.79,0.79,0,0,1,1.52,8.7h1A3.13,3.13,0,0,1,1.21,5.78a3,3,0,0,1,1.15-2.1A3.12,3.12,0,0,1,7,4.57,3.58,3.58,0,0,1,10.91,2,3.44,3.44,0,0,1,14,4.54a3.39,3.39,0,0,1-.06,2.32A4,4,0,0,1,12.47,8.7ZM2.24,16.45H13.09V10.27H2.24v6.19ZM12.59,5.6a2.07,2.07,0,1,0-2.08,2.07A2.07,2.07,0,0,0,12.59,5.6Zm5.18,5.68-3,.84a0.23,0.23,0,0,0-.1.18c0,0.7,0,1.41,0,2.11a0.18,0.18,0,0,0,.16.2L16.25,15l1.52,0.43V11.28ZM2.75,6.1A1.55,1.55,0,1,0,4.31,4.56,1.56,1.56,0,0,0,2.75,6.1Zm3.3,2.59H8.62A3.92,3.92,0,0,1,7.24,7.15,3.34,3.34,0,0,1,6.05,8.69Z"/></svg>