<svg id="Layer_2" data-name="Layer 2" xmlns="http://www.w3.org/2000/svg" viewBox="0 0 20 20"><defs><style>.cls-1{fill:#fff;stroke:#fff;stroke-miterlimit:10;stroke-width:0.5px;}</style></defs><title>icons</title><path class="cls-1" d="M5.66,15.69c0-.56,0-1.12,0-1.67a0.22,0.22,0,0,0-.13-0.22,7.06,7.06,0,0,1-2.64-2.4,5.39,5.39,0,0,1-.89-3,5.15,5.15,0,0,1,1.35-3.5A7.47,7.47,0,0,1,6.76,2.81a10.62,10.62,0,0,1,4-.46,9.49,9.49,0,0,1,3.93,1.1,6.28,6.28,0,0,1,2.68,2.63,5,5,0,0,1,.51,3.21,5.82,5.82,0,0,1-1.84,3.35,8.35,8.35,0,0,1-4.28,2.11,9.49,9.49,0,0,1-2,.17A0.31,0.31,0,0,0,9.7,15L6.14,17.56l-0.08.06a0.24,0.24,0,0,1-.4-0.2C5.66,16.84,5.66,16.27,5.66,15.69ZM6.14,17l0.13-.09c1-.74,2-1.47,3-2.21A1.13,1.13,0,0,1,10,14.43a8.63,8.63,0,0,0,3.52-.71,6.79,6.79,0,0,0,3.12-2.53,4.76,4.76,0,0,0,.54-4.43,5.24,5.24,0,0,0-2.07-2.52,8.66,8.66,0,0,0-4.2-1.42,10.27,10.27,0,0,0-3.36.24,7.65,7.65,0,0,0-3.5,1.8,4.79,4.79,0,0,0-1,6A6.5,6.5,0,0,0,5.9,13.45a0.38,0.38,0,0,1,.23.39c0,1,0,2,0,2.94V17Z"/><path class="cls-1" d="M10,6.28h4a0.44,0.44,0,0,1,.19,0,0.21,0.21,0,0,1,.11.24,0.23,0.23,0,0,1-.19.19H6a0.24,0.24,0,0,1-.26-0.24A0.24,0.24,0,0,1,6,6.28h4Z"/><path class="cls-1" d="M10,10.38h4.05a0.23,0.23,0,0,1,.22.22,0.24,0.24,0,0,1-.21.25H5.92a0.24,0.24,0,0,1-.21-0.25,0.23,0.23,0,0,1,.23-0.22H10Z"/><path class="cls-1" d="M10,8.8H5.92a0.22,0.22,0,0,1-.21-0.22,0.23,0.23,0,0,1,.2-0.24h8.21a0.23,0.23,0,0,1,0,.45H10Z"/></svg>