<svg id="Layer_1" data-name="Layer 1" xmlns="http://www.w3.org/2000/svg" viewBox="0 0 20 20"><defs><style>.cls-1,.cls-2{fill:#fff;stroke:#fff;stroke-miterlimit:10;}.cls-1{stroke-width:0.3px;}</style></defs><title>A</title><path class="cls-1" d="M11.73,4.47a1.06,1.06,0,0,1-.48.9c-0.23.16-.47,0.29-0.71,0.44a3,3,0,0,0-.47.35,0.48,0.48,0,0,0,0,.75,4.45,4.45,0,0,0,.52.35,7.82,7.82,0,0,1,.73.48,1,1,0,0,1,0,1.59,7.06,7.06,0,0,1-.67.43c-0.17.11-.34,0.2-0.5,0.31a0.53,0.53,0,0,0,0,.91,5,5,0,0,0,.46.3c0.21,0.13.44,0.25,0.64,0.4a1,1,0,0,1,0,1.7c-0.22.17-.47,0.29-0.7,0.44a3.57,3.57,0,0,0-.51.36,0.47,0.47,0,0,0,0,.72,4.31,4.31,0,0,0,.56.39,7.7,7.7,0,0,1,.7.45,1,1,0,0,1,0,1.64c-0.2.16-.44,0.28-0.66,0.42a2.89,2.89,0,0,0-.49.32,0.92,0.92,0,0,0-.23.41,0.25,0.25,0,0,1-.25.25,0.22,0.22,0,0,1-.22-0.28,1,1,0,0,1,.45-0.8c0.21-.16.45-0.28,0.67-0.42A4.73,4.73,0,0,0,11,17a0.52,0.52,0,0,0,0-.88,5.58,5.58,0,0,0-.48-0.31,7.09,7.09,0,0,1-.73-0.48,1,1,0,0,1,0-1.55,7.54,7.54,0,0,1,.74-0.49,4.42,4.42,0,0,0,.52-0.35,0.5,0.5,0,0,0,0-.79,3.92,3.92,0,0,0-.49-0.33c-0.23-.15-0.49-0.28-0.7-0.45a1,1,0,0,1,0-1.64,6.33,6.33,0,0,1,.67-0.43A5.6,5.6,0,0,0,11,9a0.53,0.53,0,0,0,0-.91c-0.15-.12-0.33-0.21-0.5-0.32a6.22,6.22,0,0,1-.69-0.46,1,1,0,0,1,0-1.57,7.09,7.09,0,0,1,.68-0.44c0.16-.1.33-0.19,0.48-0.3a0.53,0.53,0,0,0,0-.92c-0.15-.11-0.32-0.2-0.48-0.3S10.05,3.47,9.84,3.3a0.94,0.94,0,0,1-.39-0.78,0.21,0.21,0,0,1,.21-0.24,0.21,0.21,0,0,1,.24.21,0.65,0.65,0,0,0,.35.55c0.29,0.18.59,0.34,0.88,0.53a1.16,1.16,0,0,1,.57.74C11.71,4.38,11.72,4.44,11.73,4.47Z"/><path class="cls-1" d="M4.09,9.46c-0.34,0-.69-0.07-1-0.09s-0.51.18-.31,0.52,0.3,0.42.44,0.64a4.11,4.11,0,0,1,.29.45,0.72,0.72,0,0,1-.66,1.12C2.43,12.11,2.05,12,1.67,12a0.59,0.59,0,0,0-.55.17,0.33,0.33,0,0,1-.3,0A0.2,0.2,0,0,1,.77,11.9a0.78,0.78,0,0,1,.74-0.35c0.34,0,.68.06,1,0.09a0.51,0.51,0,0,0,.54-0.13A0.47,0.47,0,0,0,2.93,11c-0.13-.21-0.3-0.4-0.43-0.6a2.63,2.63,0,0,1-.26-0.46,0.68,0.68,0,0,1,.61-1,9.88,9.88,0,0,1,1,0C4,9,4.15,9,4.3,9a0.27,0.27,0,0,0,.27-0.42,4.27,4.27,0,0,0-.32-0.51,7.77,7.77,0,0,1-.46-0.69,0.71,0.71,0,0,1,.65-1.1c0.38,0,.76.05,1.13,0.08a0.48,0.48,0,0,0,.5-0.12A0.47,0.47,0,0,0,5.95,5.7C5.8,5.47,5.62,5.26,5.46,5a2.15,2.15,0,0,1-.24-0.45,0.67,0.67,0,0,1,.56-0.93,5.18,5.18,0,0,1,.83,0c0.22,0,.44.05,0.66,0.05s0.43-.18.29-0.46-0.27-.4-0.4-0.6A7.83,7.83,0,0,1,6.74,2a0.62,0.62,0,0,1,0-.63,0.23,0.23,0,0,1,.43.18A0.49,0.49,0,0,0,7.27,2c0.13,0.19.28,0.38,0.41,0.57A3.39,3.39,0,0,1,8,3.17a0.69,0.69,0,0,1-.65,1c-0.3,0-.6,0-0.91-0.05a4.87,4.87,0,0,0-.57,0,0.23,0.23,0,0,0-.22.35A4.39,4.39,0,0,0,6,5c0.15,0.24.34,0.46,0.47,0.71a0.71,0.71,0,0,1-.67,1.1c-0.35,0-.7-0.06-1.06-0.08a1.51,1.51,0,0,0-.34,0,0.25,0.25,0,0,0-.22.41,3.79,3.79,0,0,0,.31.5c0.14,0.2.3,0.4,0.42,0.61a0.74,0.74,0,0,1-.66,1.21H4.09Z"/><path class="cls-1" d="M16.76,7.47c-0.35,0-.71.06-1.06,0.08a1.08,1.08,0,0,1-.39-0.07,0.63,0.63,0,0,1-.39-0.84,5.36,5.36,0,0,1,.45-0.79c0.12-.19.27-0.37,0.37-0.57s0-.47-0.28-0.46-0.72.06-1.08,0.08a1.72,1.72,0,0,1-.54-0.05A0.63,0.63,0,0,1,13.4,4a3.27,3.27,0,0,1,.34-0.65c0.14-.23.32-0.43,0.45-0.66a0.49,0.49,0,0,0,.06-0.4,0.53,0.53,0,0,0-.39-0.15c-0.28,0-.57.07-0.85,0.08a2.27,2.27,0,0,1-.69-0.06A0.82,0.82,0,0,1,12,1.88a0.27,0.27,0,0,1,0-.26,0.28,0.28,0,0,1,.27,0,1,1,0,0,0,.94.17,6,6,0,0,1,1,0,0.64,0.64,0,0,1,.52.89,3.72,3.72,0,0,1-.37.66c-0.14.22-.31,0.42-0.44,0.64s-0.06.5,0.29,0.49,0.69-.06,1-0.08a1.69,1.69,0,0,1,.47,0,0.66,0.66,0,0,1,.49.94,5.42,5.42,0,0,1-.44.75c-0.12.19-.27,0.37-0.37,0.57s0,0.42.24,0.43S16.28,7,16.6,7a2.73,2.73,0,0,1,.62,0,0.65,0.65,0,0,1,.51.89,3.39,3.39,0,0,1-.34.63c-0.14.22-.31,0.42-0.44,0.64s-0.1.55,0.31,0.53S18,9.66,18.31,9.64a1.58,1.58,0,0,1,.47,0,0.63,0.63,0,0,1,.47.82,3.16,3.16,0,0,1-.33.65c-0.14.23-.31,0.43-0.45,0.65a0.49,0.49,0,0,0-.07.47,0.21,0.21,0,0,1-.12.28A0.23,0.23,0,0,1,18,12.45a0.64,0.64,0,0,1,0-.62c0.13-.25.29-0.49,0.44-0.73s0.25-.34.35-0.52,0-.49-0.29-0.48-0.67.06-1,.08a1.92,1.92,0,0,1-.53,0,0.66,0.66,0,0,1-.5-0.91,3.76,3.76,0,0,1,.36-0.64c0.13-.2.29-0.39,0.41-0.6a0.59,0.59,0,0,0,.07-0.4,0.36,0.36,0,0,0-.4-0.15H16.76Z"/><path class="cls-2" d="M6.84,15.43a1.17,1.17,0,0,0-.33-0.32,1.38,1.38,0,0,0-.51,0,1.14,1.14,0,0,1,.1-0.24,0.33,0.33,0,0,0,0-.43A2.15,2.15,0,0,1,6,14.17a0.62,0.62,0,0,0,.84-0.27l0,0a0.88,0.88,0,0,1,0,.24,0.31,0.31,0,0,0,.24.35,0.71,0.71,0,0,1,.24.19,0.61,0.61,0,0,0-.51.71H6.84Z"/><path class="cls-2" d="M7.13,8.29a1.15,1.15,0,0,0,.39-0.24,1.35,1.35,0,0,0,.09-0.5A1.38,1.38,0,0,0,8,7.87a1.59,1.59,0,0,0,.54-0.07,0.59,0.59,0,0,0,0,.88l-0.05,0A1.31,1.31,0,0,0,8,8.7,2,2,0,0,0,7.64,9a0.59,0.59,0,0,0-.55-0.66Z"/><path class="cls-2" d="M4.28,15.78a0.57,0.57,0,0,0,0,.88l0,0a1,1,0,0,1-.21,0,0.37,0.37,0,0,0-.46.15A1.31,1.31,0,0,1,3.4,17a1.38,1.38,0,0,0-.12-0.48,1.49,1.49,0,0,0-.45-0.25,0.59,0.59,0,0,0,.47-0.74H3.38a1.22,1.22,0,0,0,.37.3A1.58,1.58,0,0,0,4.28,15.78Z"/><path class="cls-2" d="M14.06,8.2a1.53,1.53,0,0,0,.1.52,1.8,1.8,0,0,0,.4.28,0.66,0.66,0,0,0-.51.72,0.71,0.71,0,0,0-.88-0.3,0.64,0.64,0,0,0,0-.92,1.53,1.53,0,0,0,.53,0A1.52,1.52,0,0,0,14.06,8.2Z"/><path class="cls-2" d="M17.74,15.53a0.63,0.63,0,0,0-.26.87A1.59,1.59,0,0,0,17,16.19a1.4,1.4,0,0,0-.46.19,1.32,1.32,0,0,0,.06-0.49,1.54,1.54,0,0,0-.35-0.41A0.67,0.67,0,0,0,17,15,0.67,0.67,0,0,0,17.74,15.53Z"/><path class="cls-2" d="M5.58,11a0.35,0.35,0,0,0,.4.23l-0.08.51a0.37,0.37,0,0,0-.48.11,0.46,0.46,0,0,0-.24-0.48A0.43,0.43,0,0,0,5.58,11Z"/><path class="cls-2" d="M14.81,12.62a0.37,0.37,0,0,0-.47.06l-0.22-.43,0.39-.34a0.33,0.33,0,0,0,.42.19A0.46,0.46,0,0,0,14.81,12.62Z"/><path class="cls-2" d="M5.16,2a0.47,0.47,0,0,0-.1.54,0.31,0.31,0,0,0-.46,0L4.36,2.14A0.37,0.37,0,0,0,4.71,1.8,0.42,0.42,0,0,0,5.16,2Z"/><path class="cls-2" d="M16.34,3.63a0.41,0.41,0,0,0-.27-0.51,0.44,0.44,0,0,0,.45-0.35A0.39,0.39,0,0,0,17,3a0.35,0.35,0,0,0-.12.51A0.44,0.44,0,0,0,16.34,3.63Z"/></svg>