<svg id="Layer_2" data-name="Layer 2" xmlns="http://www.w3.org/2000/svg" viewBox="0 0 20 20"><defs><style>.cls-1{fill:#fff;}</style></defs><title>icon</title><path class="cls-1" d="M1.62,13.07V6.93c0-.39.07-0.77,0.11-1.16a4.4,4.4,0,0,1,3.73-4c0.48-.09,1-0.11,1.46-0.17h6.14l1.1,0.11a4.46,4.46,0,0,1,4.09,4.2c0,0.55.08,1.11,0.12,1.66v4.75c0,0.56-.07,1.12-0.11,1.69A4.47,4.47,0,0,1,14,18.26l-1.69.11H7.6l-1.66-.12a4.42,4.42,0,0,1-4.14-3.75C1.71,14,1.68,13.55,1.62,13.07ZM16.86,10h0c0-.54,0-1.08,0-1.62,0-.85,0-1.71-0.13-2.56A2.63,2.63,0,0,0,14.9,3.49a5.86,5.86,0,0,0-1.69-.29c-1.48-.05-3-0.06-4.44-0.05-0.91,0-1.82,0-2.73.1A2.83,2.83,0,0,0,3.3,5.76a16.62,16.62,0,0,0-.15,2.53c0,1.86,0,3.72.1,5.58a2.86,2.86,0,0,0,3,2.88c2.52,0.06,5,0,7.56,0a2.89,2.89,0,0,0,2.37-1.17,3.26,3.26,0,0,0,.62-1.85C16.81,12.48,16.83,11.23,16.86,10Z"/><path class="cls-1" d="M5.69,10A4.3,4.3,0,1,1,10,14.29,4.28,4.28,0,0,1,5.69,10Zm7.07-.07a2.78,2.78,0,1,0-2.69,2.87A2.78,2.78,0,0,0,12.77,9.9Z"/><circle class="cls-1" cx="14.45" cy="5.53" r="1.01" transform="translate(8.82 19.94) rotate(-89.59)"/></svg>