<svg id="Layer_2" data-name="Layer 2" xmlns="http://www.w3.org/2000/svg" viewBox="0 0 20 20"><defs><style>.cls-1{fill:#fff;stroke:#fff;stroke-miterlimit:10;stroke-width:0.5px;}</style></defs><title>icons</title><path class="cls-1" d="M17.22,7a0.28,0.28,0,0,1-.19.29L14.2,8.59l-4,1.87a0.4,0.4,0,0,1-.37,0L3,7.3l-0.08,0A0.23,0.23,0,0,1,2.74,7a0.24,0.24,0,0,1,.17-0.22l1.31-.61L9.79,3.63a0.38,0.38,0,0,1,.36,0L17,6.81A0.27,0.27,0,0,1,17.22,7ZM16.47,7L16.37,7,10.09,4.08a0.26,0.26,0,0,0-.25,0L3.64,7,3.5,7,3.6,7.1,9.87,10a0.26,0.26,0,0,0,.24,0l4.8-2.23Z"/><path class="cls-1" d="M17.48,12.81a1.27,1.27,0,0,1-.24.2l-2.77,1.32-4.28,2a0.43,0.43,0,0,1-.41,0L2.76,13,2.66,13a0.22,0.22,0,1,1,.19-0.39L3.64,13,9.83,15.9a0.31,0.31,0,0,0,.3,0l6.93-3.28a0.45,0.45,0,0,1,.28,0A0.53,0.53,0,0,1,17.48,12.81Z"/><path class="cls-1" d="M10,13.52l-0.16-.05L2.71,10.09a0.23,0.23,0,0,1-.16-0.32A0.24,0.24,0,0,1,2.9,9.69L9.82,13a0.34,0.34,0,0,0,.32,0L17,9.71l0.15-.06a0.2,0.2,0,0,1,.25.13,0.2,0.2,0,0,1-.07.26,0.74,0.74,0,0,1-.14.08l-7,3.33Z"/></svg>