<svg id="Layer_2" data-name="Layer 2" xmlns="http://www.w3.org/2000/svg" viewBox="0 0 20 20"><defs><style>.cls-1{fill:#fff;}</style></defs><title>icon</title><path class="cls-1" d="M0.65,7.4q0-1.13,0-2.26c0-.08,0-0.16,0-0.23A2,2,0,0,1,2.18,3.38l0.28-.06H17.57l0.23,0a2,2,0,0,1,1.48,1.35c0,0.07,0,.15.07,0.23v10a3.9,3.9,0,0,1-.14.54,1.94,1.94,0,0,1-1.31,1.16l-0.33.07H2.67a2.12,2.12,0,0,1-.45,0A2,2,0,0,1,.72,15.21C0.69,15.1.67,15,.65,14.87V10s0-.05,0-0.08c0-.25,0-0.5,0-0.75q0-.81,0-1.62C0.66,7.53.65,7.46,0.65,7.4Zm2-3v0L2.69,4.45,5.36,7.11l4.4,4.4a0.5,0.5,0,0,0,.16.12,0.33,0.33,0,0,0,.37-0.1l1-1,6-6,0,0H2.64Zm1,11.29H16.35l-4.4-4.41,0,0.07-1.59,1.59a0.34,0.34,0,0,1-.55,0l-1.4-1.4-0.31-.3Zm9.06-5.1,0,0,3.94,3.95,1,1a0.1,0.1,0,0,0,.08,0,0.73,0.73,0,0,0,.45-0.36,1.38,1.38,0,0,0,.14-0.68q0-4.81,0-9.62s0,0,0,0Zm-5.34,0L1.76,5V5q0,4.81,0,9.63a2.69,2.69,0,0,0,0,.41,0.65,0.65,0,0,0,.38.52,0.1,0.1,0,0,0,.14,0l4-4Z"/><path class="cls-1" d="M0.65,7.4c0,0.07,0,.13,0,0.2q0,0.81,0,1.62c0,0.25,0,.5,0,0.75,0,0,0,.05,0,0.08Q0.65,8.72.65,7.4Z"/></svg>