<svg id="Layer_1" data-name="Layer 1" xmlns="http://www.w3.org/2000/svg" viewBox="0 0 20 20"><defs><style>.cls-1{fill:#fff;}</style></defs><title>A</title><path class="cls-1" d="M12,0.69l0.19,0.06a1.62,1.62,0,0,1,1.18,1.47c0,0.24,0,.48,0,0.7a6.22,6.22,0,0,1,.74,0,1.63,1.63,0,0,1,1.45,1.57c0,0.23,0,.45,0,0.69A1.65,1.65,0,0,1,17.8,6.72c0,2.21,0,4.41,0,6.62a16.4,16.4,0,0,1-.68,4.14c-0.13.47-.27,0.93-0.42,1.39a0.55,0.55,0,0,1-.6.43H8a0.62,0.62,0,0,1-.52-0.25L2.35,12.58a0.55,0.55,0,0,1,0-.74,5.21,5.21,0,0,1,.43-0.62A2.24,2.24,0,0,1,6,11c0.47,0.42.93,0.87,1.4,1.3l0.27,0.24c0-.09,0-0.15,0-0.21q0-4.46,0-8.92A1.63,1.63,0,0,1,8.94,1.83a1.7,1.7,0,0,1,1,.07A1.66,1.66,0,0,1,11.22.71l0,0H12ZM3.43,12.15l0,0.06,4.68,5.9a0.3,0.3,0,0,0,.21.09H15.6a0.17,0.17,0,0,0,.2-0.15c0.14-.55.31-1.09,0.44-1.64a12.85,12.85,0,0,0,.45-2.95c0-2.25,0-4.5,0-6.75a0.54,0.54,0,1,0-1.09,0c0,0.21,0,.42,0,0.64,0,1,0,2,0,3.05a0.5,0.5,0,0,1-.45.51,0.53,0.53,0,0,1-.62-0.37,1.11,1.11,0,0,1,0-.28q0-2.81,0-5.63a1.66,1.66,0,0,0,0-.22A0.54,0.54,0,0,0,13.82,4a0.56,0.56,0,0,0-.4.6q0,2.35,0,4.7c0,0.08,0,.16,0,0.23a0.48,0.48,0,0,1-.3.41,0.54,0.54,0,0,1-.78-0.5q0-1.78,0-3.55t0-3.5a0.54,0.54,0,0,0-.26-0.51,0.89,0.89,0,0,0-.82,0,0.57,0.57,0,0,0-.29.6q0,3.2,0,6.4a0.55,0.55,0,1,1-1.1,0c0-.05,0-0.1,0-0.16q0-2.57,0-5.15c0-.07,0-0.13,0-0.2A0.54,0.54,0,0,0,8.8,3.26a1.16,1.16,0,0,0,0,.31q0,5,0,10.08c0,0.08,0,.16,0,0.23a0.5,0.5,0,0,1-.33.45,0.52,0.52,0,0,1-.55-0.07l-0.23-.21L5.33,11.89A1.17,1.17,0,0,0,3.43,12.15Z"/></svg>