<svg id="Layer_2" data-name="Layer 2" xmlns="http://www.w3.org/2000/svg" viewBox="0 0 20 20"><defs><style>.cls-1{fill:#fff;}</style></defs><title>icons</title><path class="cls-1" d="M10,18.49A8.49,8.49,0,1,1,18.49,10,8.49,8.49,0,0,1,10,18.49Zm3.52-7a8.13,8.13,0,0,0,0-2.84,0.17,0.17,0,0,0-.21-0.18h-2.5v3h2.69Zm-4.34-3,0,0H6.62a0.2,0.2,0,0,0-.14.13,6.38,6.38,0,0,0-.1.73,7.6,7.6,0,0,0,.11,2.15H9.18v-3Zm7.51,3a6.66,6.66,0,0,0,0-3H15.17a9.49,9.49,0,0,1,0,3h1.51ZM4.8,11.5c0-.51-0.09-1-0.09-1.5S4.77,9,4.8,8.5H3.31a6.64,6.64,0,0,0,0,3H4.8Zm4.38,1.65H7a7.6,7.6,0,0,0,2.17,2.77V13.15Zm1.64,2.74A7,7,0,0,0,13,13.15H10.82v2.74ZM9.18,4.09A7.76,7.76,0,0,0,7,6.85H9.18V4.09Zm1.65,0V6.85h2.12A7.29,7.29,0,0,0,10.83,4.12Zm2.12-.31a0.29,0.29,0,0,0,0,.07l0.16,0.19a9,9,0,0,1,1.48,2.43c0.15,0.35.14,0.35,0.52,0.35h1A7,7,0,0,0,12.95,3.81ZM7,3.85a6.69,6.69,0,0,0-3.14,3H5.1a0.19,0.19,0,0,0,.22-0.16,8.41,8.41,0,0,1,1-2C6.58,4.43,6.82,4.15,7,3.85Zm0,12.3a9.82,9.82,0,0,1-1.76-2.92,0.17,0.17,0,0,0-.12-0.09H3.91A6.75,6.75,0,0,0,7,16.15Zm6,0a6.94,6.94,0,0,0,3.11-3H14.9a0.19,0.19,0,0,0-.21.15,11.57,11.57,0,0,1-.61,1.27C13.75,15.11,13.36,15.63,13,16.17Z"/></svg>