<svg id="Layer_2" data-name="Layer 2" xmlns="http://www.w3.org/2000/svg" viewBox="0 0 20 20"><defs><style>.cls-1{fill:#fff;}</style></defs><title>premio</title><path class="cls-1" d="M6.77,2.69L7.33,1.55,7.4,1.39a0.5,0.5,0,0,1,.45-0.31,0.49,0.49,0,0,1,.46.3L9.13,3,9.92,4.56,10,4.71l0.14-.27,1.53-3a0.51,0.51,0,0,1,1,0l0.61,1.25,1.38-.25a0.5,0.5,0,0,1,.54.15,0.53,0.53,0,0,1,0,.59l-0.8,1.59L12.58,8.35l-0.07.15h1.36A0.5,0.5,0,0,1,14.4,9c0,0.63,0,1.27,0,1.9a0.31,0.31,0,0,0,.1.25l1.32,1.32a0.5,0.5,0,0,1,0,.79l-1.33,1.34a0.33,0.33,0,0,0-.08.21c0,0.63,0,1.27,0,1.9a0.51,0.51,0,0,1-.56.56H12a0.33,0.33,0,0,0-.26.11l-1.32,1.32a0.5,0.5,0,0,1-.78,0L8.27,17.39a0.35,0.35,0,0,0-.22-0.09H6.17a0.51,0.51,0,0,1-.57-0.56c0-.62,0-1.24,0-1.86a0.34,0.34,0,0,0-.11-0.27L4.18,13.3a0.5,0.5,0,0,1,0-.79l1.33-1.34A0.33,0.33,0,0,0,5.6,11c0-.63,0-1.27,0-1.9A0.51,0.51,0,0,1,6.16,8.5H7.5L7.44,8.37,4.82,3.2A0.91,0.91,0,0,1,4.75,3,0.44,0.44,0,0,1,5.3,2.43ZM10,8.09l-0.12.11c-0.36.36-.72,0.71-1.07,1.07a0.69,0.69,0,0,1-.55.22H6.59c0,0.07,0,.13,0,0.18,0,0.51,0,1,0,1.53a0.62,0.62,0,0,1-.2.48L5.31,12.78l-0.12.12,1.21,1.2a0.62,0.62,0,0,1,.2.48c0,0.51,0,1,0,1.54,0,0.05,0,.11,0,0.18H8.32a0.62,0.62,0,0,1,.48.2l1.09,1.09L10,17.72l1.2-1.21a0.61,0.61,0,0,1,.47-0.19h1.73c0-.08,0-0.13,0-0.18,0-.51,0-1,0-1.54a0.62,0.62,0,0,1,.2-0.48L14.7,13l0.11-.12L13.6,11.69a0.61,0.61,0,0,1-.19-0.47c0-.52,0-1,0-1.56,0-.05,0-0.11,0-0.17H11.7a0.63,0.63,0,0,1-.49-0.2l-0.86-.86Zm2.13-5.38L10,6.83c0.16,0.12.32,0.23,0.45,0.35,0.32,0.3.62,0.62,0.93,0.93L11.53,8.2l2.34-4.61-0.73.13a0.51,0.51,0,0,1-.67-0.32ZM8.34,8l0-.06c0.34-.67.68-1.33,1-2a0.25,0.25,0,0,0,0-.19L7.93,2.85,7.87,2.73l0,0-0.32.66a0.52,0.52,0,0,1-.65.32L6.13,3.59Z"/><path class="cls-1" d="M10,10.18a2.72,2.72,0,1,1-2.72,2.71A2.73,2.73,0,0,1,10,10.18Zm0,1a1.72,1.72,0,1,0,1.71,1.72A1.71,1.71,0,0,0,10,11.18Z"/></svg>