<svg id="Layer_2" data-name="Layer 2" xmlns="http://www.w3.org/2000/svg" viewBox="0 0 20 20"><defs><style>.cls-1{fill:#fff;stroke:#fff;stroke-linecap:round;stroke-linejoin:round;stroke-width:0.5px;}</style></defs><title>icons</title><path class="cls-1" d="M11.3,18.14H8.71c-0.09-.67-0.18-1.32-0.25-2a0.54,0.54,0,0,0-.41-0.56,2.94,2.94,0,0,0-1-.34,2.4,2.4,0,0,0-.86.61l-1,.79L3.37,14.79c0.4-.52.83-1.09,1.28-1.65a0.38,0.38,0,0,0,.06-0.46c-0.14-.3-0.25-0.62-0.39-0.92a0.35,0.35,0,0,0-.22-0.17L2,11.3l-0.1,0V8.71c0.66-.09,1.32-0.18,2-0.25A0.54,0.54,0,0,0,4.41,8a4.23,4.23,0,0,1,.31-0.76,0.32,0.32,0,0,0-.06-0.4c-0.45-.57-0.89-1.14-1.31-1.7L5.18,3.35c0.46,0.36,1,.7,1.43,1.11a0.72,0.72,0,0,0,1,.13,1.7,1.7,0,0,1,.5-0.21,0.47,0.47,0,0,0,.36-0.51c0.07-.67.16-1.33,0.25-2h2.59c0.07,0.52.15,1,.2,1.57a1,1,0,0,0,.81,1.12,0.91,0.91,0,0,0,1.18-.16c0.42-.39.9-0.71,1.33-1l1.84,1.83-0.78,1c-0.19.24-.39,0.48-0.56,0.73a0.39,0.39,0,0,0,0,.3c0.12,0.34.26,0.67,0.41,1a0.38,0.38,0,0,0,.24.19c0.73,0.11,1.47.2,2.21,0.3v2.58l-1.57.21a1.16,1.16,0,0,1-.25,0,0.71,0.71,0,0,0-.82.63,2.51,2.51,0,0,0-.26.78,1.81,1.81,0,0,0,.47.66l0.93,1.2-1.84,1.83-0.29-.21c-0.48-.37-1-0.75-1.45-1.11a0.38,0.38,0,0,0-.3,0c-0.33.12-.65,0.27-1,0.39a0.31,0.31,0,0,0-.23.28C11.49,16.67,11.39,17.4,11.3,18.14ZM15.85,5.23L14.77,4.15c-0.51.4-1.05,0.81-1.58,1.23a0.3,0.3,0,0,1-.36,0l-1.17-.49A0.81,0.81,0,0,1,11,4c-0.05-.5-0.13-1-0.2-1.51H9.25C9.16,3.1,9.07,3.73,9,4.37a0.44,0.44,0,0,1-.32.43c-0.51.19-1,.4-1.5,0.62a0.33,0.33,0,0,1-.4-0.06c-0.52-.41-1-0.82-1.54-1.2L4.16,5.24,5.39,6.82a0.29,0.29,0,0,1,0,.33A8.17,8.17,0,0,0,5,8.33a0.9,0.9,0,0,1-1,.73,14.09,14.09,0,0,0-1.49.19v1.51c0.65,0.08,1.28.18,1.92,0.24a0.42,0.42,0,0,1,.41.31c0.12,0.34.27,0.66,0.4,1a1.67,1.67,0,0,1,.26.71,1.79,1.79,0,0,1-.45.64L4.16,14.77l1.08,1.08c0.51-.4,1.05-0.81,1.58-1.23a0.3,0.3,0,0,1,.36,0l1.17,0.49a0.81,0.81,0,0,1,.71,1c0.05,0.5.13,1,.2,1.51h1.51c0.08-.65.18-1.29,0.24-1.94a0.41,0.41,0,0,1,.3-0.4q0.77-.3,1.52-0.63a0.33,0.33,0,0,1,.4.06c0.52,0.41,1,.82,1.54,1.2l1.08-1.08-1.23-1.58a0.29,0.29,0,0,1,0-.33c0.17-.4.33-0.8,0.5-1.2a0.79,0.79,0,0,1,1-.7c0.51-.05,1-0.13,1.52-0.2V9.24C16.89,9.16,16.26,9.07,15.62,9a0.41,0.41,0,0,1-.4-0.29c-0.2-.52-0.41-1-0.64-1.54a0.32,0.32,0,0,1,.06-0.38C15,6.27,15.45,5.74,15.85,5.23Z"/><path class="cls-1" d="M10,7a3,3,0,1,1-3,3A3,3,0,0,1,10,7Zm0,0.61A2.36,2.36,0,1,0,12.36,10,2.35,2.35,0,0,0,10,7.64Z"/></svg>