<svg id="Layer_1" data-name="Layer 1" xmlns="http://www.w3.org/2000/svg" viewBox="0 0 20 20"><defs><style>.cls-1{fill:#fff;}</style></defs><title>A</title><path class="cls-1" d="M5,8.09a4,4,0,0,0,2,0L6.83,7.33C6.73,6.49,6.63,5.64,6.55,4.8,6.48,4.16,6.43,3.52,6.37,2.88a2,2,0,0,1,.4-1.53,0.31,0.31,0,0,1,.31-0.13L9.31,1.47l1.91,0.21h0.12V6.28l0.84-.09c0.25,0,.5-0.06.75-0.08a0.32,0.32,0,0,1,.22.09,1.64,1.64,0,0,1,.45,1.27c0,0.76-.12,1.51-0.19,2.27s-0.16,1.46-.24,2.18c0,0.35-.08.7-0.12,1a4.07,4.07,0,0,0,2,0l-0.12-1.1c-0.08-.74-0.17-1.49-0.24-2.23s-0.12-1.33-.18-2a1.86,1.86,0,0,1,.42-1.43,0.29,0.29,0,0,1,.28-0.11l2.18,0.24,1.94,0.21a0.14,0.14,0,0,1,.15.16c0,1.9,0,3.8,0,5.69a6.31,6.31,0,0,1-2.45,5,7.46,7.46,0,0,1-2.85,1.35,0.37,0.37,0,0,1-.17,0,7.09,7.09,0,0,1-3.86-2.33,6.34,6.34,0,0,1-1.36-3.1c0-.21-0.06-0.42-0.09-0.65l-0.15.09A7.7,7.7,0,0,1,6,13.88a0.31,0.31,0,0,1-.14,0,7.07,7.07,0,0,1-3.94-2.4A6.35,6.35,0,0,1,.6,8.12,13.19,13.19,0,0,1,.53,6.78c0-1.64,0-3.28,0-4.92V1.69l1-.11L4.08,1.3l0.74-.08a0.26,0.26,0,0,1,.25.11A1.64,1.64,0,0,1,5.5,2.46c0,0.54-.06,1.08-0.11,1.61-0.07.76-.16,1.51-0.24,2.26C5.09,6.86,5,7.38,5,7.9,5,8,5,8,5,8.09ZM2.17,9.38a4.77,4.77,0,0,0,1,1.09,4.39,4.39,0,0,0,5.28.11,0.25,0.25,0,0,0,.12-0.14c0-.32,0-0.64,0-1a4.75,4.75,0,0,1-6-.46ZM14.52,13.9A4.84,4.84,0,0,0,11,15.05a1.1,1.1,0,0,0-.18.19,0.36,0.36,0,0,0,.22.58,0.58,0.58,0,0,0,.47-0.1,4.65,4.65,0,0,1,3.68-.55,5.23,5.23,0,0,1,1.36.59,0.47,0.47,0,0,0,.63-0.09,0.41,0.41,0,0,0-.13-0.57A4.33,4.33,0,0,0,14.52,13.9ZM8.71,4.27l-0.24,0a1.35,1.35,0,0,0-1,.61,0.23,0.23,0,0,0,.16.39,3.54,3.54,0,0,0,.62.09,1.8,1.8,0,0,1,1.08.38,3,3,0,0,0,.3.22C10,6.2,10.2,6.08,10.22,5.7a0.71,0.71,0,0,0,0-.13A1.42,1.42,0,0,0,8.71,4.27ZM17,11l0.23,0a1.41,1.41,0,0,0,.94-0.53c0.19-.26.12-0.44-0.19-0.5a4.05,4.05,0,0,0-.54-0.07,1.78,1.78,0,0,1-1.08-.38l-0.24-.17a0.42,0.42,0,0,0-.47-0.11,0.48,0.48,0,0,0-.16.49,0.37,0.37,0,0,0,0,0A1.42,1.42,0,0,0,17,11ZM1.64,5.64s0,0.06,0,.09c0,0.34.24,0.45,0.53,0.28,0.14-.08.27-0.18,0.4-0.28a1.5,1.5,0,0,1,.79-0.31A5.63,5.63,0,0,0,4,5.36a0.44,0.44,0,0,0,.45-0.22,0.49,0.49,0,0,0-.24-0.48,1.48,1.48,0,0,0-.92-0.38A1.42,1.42,0,0,0,1.64,5.64Zm8.76,5.19a1.55,1.55,0,0,0,1.82-.37,1.31,1.31,0,0,0,.29-1,0.28,0.28,0,0,0-.45-0.21,1.69,1.69,0,0,0-.25.15,2,2,0,0,1-.89.46,0.14,0.14,0,0,0-.09.08Z"/></svg>