<svg id="Layer_1" data-name="Layer 1" xmlns="http://www.w3.org/2000/svg" viewBox="0 0 20 20"><defs><style>.cls-1{fill:#fff;stroke:#fff;stroke-miterlimit:10;stroke-width:0.5px;}</style></defs><title>A</title><path class="cls-1" d="M18.79,14.81V13.87h0.51s0,0.09,0,.14q0,1.22,0,2.45c0,0.29-.07.37-0.37,0.37H1.06c-0.31,0-.36-0.06-0.36-0.38,0-.79,0-1.58,0-2.38,0-.06,0-0.12,0-0.2H1.21v0.88h0l0.31-1L4.84,3.47a0.31,0.31,0,0,1,.39-0.29h9.52a0.31,0.31,0,0,1,.39.29l3.57,11.22,0,0.13h0ZM9.59,16.3h9.08l0-.14q-2-6.14-3.92-12.28a0.21,0.21,0,0,0-.25-0.18h-9L9,14.82h0V13.87H9.59V16.3ZM9,16.3L5.43,5.2h0V16.3H9Zm-4.1-11h0l-3.53,11H4.86v-11Z"/></svg>