<svg id="Layer_2" data-name="Layer 2" xmlns="http://www.w3.org/2000/svg" viewBox="0 0 20 20"><defs><style>.cls-1{fill:#fff;}</style></defs><title>icons</title><path class="cls-1" d="M18.43,14.11H16.94v-5l-0.79.31a0.21,0.21,0,0,0-.05.16q0,1.83,0,3.67c0,0.21,0,.42,0,0.63a0.72,0.72,0,0,1-.48.72,15.32,15.32,0,0,1-2.95.8,16,16,0,0,1-3.08.22,15.91,15.91,0,0,1-5.24-1,0.69,0.69,0,0,1-.45-0.68c0-1.43,0-2.86,0-4.28a0.21,0.21,0,0,0-.16-0.23l-1.8-.7A0.75,0.75,0,0,1,1.4,8a0.73,0.73,0,0,1,.54-0.7L9.68,4.42a0.88,0.88,0,0,1,.63,0l7.77,2.86a0.73,0.73,0,0,1,.39,1.12,0.42,0.42,0,0,0,0,.2q0,2.66,0,5.31v0.19ZM5.37,10v0.18c0,1,0,2,0,3a0.18,0.18,0,0,0,.16.21,14.78,14.78,0,0,0,5.54.65,15,15,0,0,0,3.42-.66,0.17,0.17,0,0,0,.14-0.19c0-1,0-2,0-3V10l-0.17.06-4.1,1.61a0.9,0.9,0,0,1-.7,0l-3-1.18ZM15.74,8L15.6,7.94l-5.5-2a0.37,0.37,0,0,0-.23,0l-5.46,2L4.26,8l0,0,5.6,2.17a0.36,0.36,0,0,0,.23,0l2-.77Z"/></svg>