<svg id="Layer_1" data-name="Layer 1" xmlns="http://www.w3.org/2000/svg" viewBox="0 0 20 20"><defs><style>.cls-1{fill:#fff;}</style></defs><title>A</title><path class="cls-1" d="M10,0.83a9.17,9.17,0,1,1-9.19,9A9.19,9.19,0,0,1,10,.83ZM10.1,6.58a8.73,8.73,0,0,1,4.49,2.8,9.78,9.78,0,0,1,2.17,4.85,8.16,8.16,0,0,0,.92-2,1.27,1.27,0,0,0,0-.84,10,10,0,0,0-2.2-3.73,8.75,8.75,0,0,0-4.81-2.56,0.24,0.24,0,0,0-.2.1C10.34,5.63,10.23,6.1,10.1,6.58Zm0,1.23c0,0.24,0,.45.06,0.65s0.13,0.68.2,1a0.59,0.59,0,0,0,.32.42,6.32,6.32,0,0,1,2.91,6.29c-0.05.34-.14,0.68-0.21,1a8,8,0,0,0,1.73-1.09,1,1,0,0,0,.55-1.31A8.6,8.6,0,0,0,14,10.56,7.42,7.42,0,0,0,10.08,7.81ZM10.8,2l-2,.11a0.44,0.44,0,0,0-.39.26A10.43,10.43,0,0,0,7.14,8.58a9.55,9.55,0,0,0,.49,2.23L9,10.2a0.28,0.28,0,0,0,.18-0.4,8.33,8.33,0,0,1,.5-5.94C10,3.24,10.41,2.66,10.8,2ZM11.42,12l-1.12-1a0.3,0.3,0,0,0-.41,0,8.16,8.16,0,0,1-7.49.53l-0.22-.08a1.07,1.07,0,0,0,0,.19c0.18,0.55.36,1.09,0.56,1.63a0.46,0.46,0,0,0,.28.23,9.71,9.71,0,0,0,4.91.08A9.8,9.8,0,0,0,11.42,12ZM7,2.62L6.76,2.7A7.56,7.56,0,0,0,4.7,4a0.83,0.83,0,0,0-.24.42c-0.12.6-.23,1.21-0.29,1.82a12.74,12.74,0,0,0,.35,4.53A0.29,0.29,0,0,0,4.7,11a5.44,5.44,0,0,0,1.73,0A11.73,11.73,0,0,1,7,2.62ZM3.77,14.95a0.31,0.31,0,0,0,0,.07,7.68,7.68,0,0,0,1.89,1.69,0.45,0.45,0,0,0,.26,0c0.65-.06,1.31-0.09,1.95-0.2a12.22,12.22,0,0,0,4.37-1.66,0.28,0.28,0,0,0,.14-0.18A4.29,4.29,0,0,0,12,13.13,11.19,11.19,0,0,1,3.77,14.95ZM11,3.92a10.05,10.05,0,0,1,6.89,5,7.22,7.22,0,0,0-.73-2.42,7.94,7.94,0,0,0-4.8-4.13,0.31,0.31,0,0,0-.25,0A6.5,6.5,0,0,0,11,3.92Zm1.35,12.31a14.63,14.63,0,0,1-4.22,1.51,7.37,7.37,0,0,0,3.5.07,0.25,0.25,0,0,0,.15-0.09A4.05,4.05,0,0,0,12.36,16.22ZM2.95,6.3A7.68,7.68,0,0,0,2,10a0.17,0.17,0,0,0,.06.13l1.18,0.52A15.4,15.4,0,0,1,2.95,6.3Z"/></svg>